<?xml version="1.0" encoding="UTF-8" standalone="no"?><!DOCTYPE svg PUBLIC "-//W3C//DTD SVG 1.1//EN" "http://www.w3.org/Graphics/SVG/1.1/DTD/svg11.dtd"><svg width="100%" height="100%" viewBox="0 0 16496 2605" version="1.1" xmlns="http://www.w3.org/2000/svg" xmlns:xlink="http://www.w3.org/1999/xlink" xml:space="preserve" xmlns:serif="http://www.serif.com/" style="fill-rule:evenodd;clip-rule:evenodd;stroke-linejoin:round;stroke-miterlimit:2;"><g><g><g><g><path d="M8128.744,2616.903c-5.826,3.975 -12.385,2.498 -18.58,2.498l-1681.186,0c-5.639,0 -11.368,-0.369 -17.007,-0.556l0,-2.124c53.52,-88.642 107.04,-177.198 160.464,-265.84c183.757,-304.846 367.515,-609.693 551.277,-914.448c119.885,-198.828 239.776,-397.741 359.661,-596.569c168.783,-279.889 337.566,-559.778 506.167,-839.855c4.991,-8.319 10.539,-11.459 20.335,-11.368c212.042,0.278 424.09,0.187 636.035,0.187c15.252,0 15.343,0 15.343,15.343c0,272.678 0,545.27 0.187,817.947c0,8.875 -2.868,15.252 -8.875,21.63c-76.257,81.067 -152.332,162.315 -228.402,243.564c-58.881,62.856 -117.574,125.893 -176.364,188.749c-32.907,35.218 -65.905,70.34 -98.812,105.558c-2.033,2.22 -6.008,4.162 -4.253,7.763c1.664,3.328 5.73,1.851 8.779,1.851c73.764,0 147.523,0.835 221.196,-0.738c79.772,-1.664 159.538,-0.46 239.31,-1.386c13.401,-0.187 13.771,0.835 8.779,13.032c-34.202,84.116 -68.125,168.232 -102.327,252.252c-65.814,161.481 -131.901,322.87 -197.715,484.356c-39.744,97.517 -79.034,195.126 -118.687,292.643c-22.555,55.462 -45.57,110.828 -68.216,166.194c-2.589,6.195 -4.531,12.663 -6.746,19.04l-0.187,0.278l-0.187,0l0.011,0Zm-135.876,-1517.304c-1.851,2.771 -3.049,4.435 -4.162,6.195c-169.43,280.997 -338.957,562.09 -508.388,843.091c-1.573,2.589 -5.082,5.548 -3.328,8.41c2.033,3.419 6.468,1.664 9.796,1.573c79.403,-0.556 158.709,0.091 238.112,-1.295c84.667,-1.477 169.43,-0.556 254.103,-0.738c15.713,0 15.713,0 15.713,-15.991l0,-828.299c0,-3.788 0.926,-7.763 -1.942,-13.032l0.091,0.091l0.005,-0.005Z" style="fill:#fb1511;fill-rule:nonzero;"/></g><g><path d="M9545.481,1099.599c-2.868,6.468 -1.755,11.459 -1.755,16.269l0,1482.824c0,25.048 0.187,21.073 -21.351,21.073l-627.535,0c-11.764,0 -17.655,-5.703 -17.655,-17.098c0,-257.43 0,-514.856 -0.091,-772.195c0,-8.966 1.942,-15.991 8.319,-22.924c83.747,-89.107 167.216,-178.488 250.775,-267.782c100.198,-107.222 200.395,-214.444 300.593,-321.672c1.386,-1.573 2.771,-3.14 4.162,-4.804c-2.771,-4.162 -6.655,-2.402 -9.796,-2.402c-91.788,0.091 -183.666,-0.369 -275.454,0.926c-60.266,0.835 -120.533,0.556 -180.799,1.204c-18.211,0.187 -18.393,0 -11.647,-16.451c40.022,-98.165 80.232,-196.239 120.163,-294.403c40.579,-99.829 80.879,-199.748 121.458,-299.577c62.577,-153.996 125.342,-307.896 188.101,-461.801c18.858,-46.308 37.989,-92.435 56.479,-138.834c3.788,-9.614 8.597,-13.958 19.409,-13.401c19.778,0.835 39.744,0.835 59.528,0c10.17,-0.369 15.9,2.958 21.169,11.738c54.718,91.6 109.999,182.928 165.086,274.25c218.515,362.523 437.026,725.052 655.541,1087.484c24.31,40.392 48.711,80.697 74.962,120.998l0,-1474.226c0,-22.277 -2.311,-19.966 19.875,-19.966l628.642,0c11.154,0 16.729,5.612 16.729,16.825l0,1484.953c0,11.154 -5.612,16.729 -16.825,16.729l-621.157,0c-4.162,0 -8.41,-1.016 -13.589,1.477c5.27,8.966 10.443,17.655 15.713,26.343c177.102,293.938 354.204,587.785 531.403,881.637c38.268,63.412 76.626,126.819 114.803,190.322c2.033,3.419 6.655,7.212 3.975,11.278c-2.124,3.14 -7.303,1.573 -11.09,1.573c-212.78,0 -425.475,0 -638.256,0.278c-9.892,0 -15.252,-3.419 -20.153,-11.647c-123.122,-204.74 -246.522,-409.388 -369.922,-613.946c-177.937,-295.142 -355.777,-590.192 -533.714,-885.334c-1.664,-2.68 -3.328,-5.361 -5.917,-9.523l-0.187,-0.187l0.005,-0.005Z" style="fill:#fb1511;fill-rule:nonzero;"/></g><g><path d="M8879.032,599.531c-3.049,-3.788 -1.851,-7.763 -1.851,-11.556l0,-583.906c0,-15.531 0,-15.531 15.991,-15.531l544.526,0c3.328,0.46 8.041,-1.664 9.796,1.755c1.942,3.788 -2.771,6.008 -5.082,8.41c-35.496,38.177 -70.987,76.257 -106.575,114.343c-124.417,133.105 -248.833,266.119 -373.341,399.132c-25.417,27.177 -50.931,54.258 -76.444,81.339c-2.033,2.22 -3.606,5.179 -7.024,5.917l0,0.091l0.005,0.005Z" style="fill:#fb1511;fill-rule:nonzero;"/></g><g><path d="M8128.932,2616.716c24.866,-26.252 49.914,-52.316 74.593,-78.659c46.03,-49.176 91.879,-98.443 137.818,-147.71c77.092,-82.634 154.178,-165.274 231.361,-247.908c25.883,-27.728 51.947,-55.275 78.012,-82.73c2.402,-2.589 4.253,-8.132 8.688,-6.008c3.237,1.573 1.664,6.468 1.664,9.892l0,539.165c0,11.09 -5.361,16.665 -16.082,16.729l-501.914,0c-4.804,0 -9.983,1.204 -14.236,-2.498l0.187,-0.278l-0.091,0l0,0.005Z" style="fill:#fb1511;fill-rule:nonzero;"/></g></g></g></g><g><g><g><g><path d="M16189.109,1944.142c-88.867,0.558 -177.733,1.117 -266.6,1.956c-19.562,0 -27.387,-14.81 -36.329,-27.946c-133.021,-189.471 -266.042,-378.942 -399.063,-568.413c-9.5,-13.694 -19.562,-27.387 -30.179,-42.479c-9.5,13.694 -5.869,25.708 -5.869,36.888c-0.281,185.558 0,370.836 0,556.394c0,45.271 0,45.271 -43.873,45.271c-80.483,0 -160.686,-0.558 -241.169,0.281c-24.314,0.281 -34.092,-6.708 -34.092,-32.698c0.558,-397.665 0.558,-795.329 0,-1192.99c0,-24.592 7.544,-34.092 32.975,-33.815c71.819,1.398 143.642,1.675 215.46,0c27.106,-0.558 42.756,9.5 57.567,31.3c137.492,203.442 275.542,406.048 413.592,608.932c4.752,6.986 9.781,13.694 20.402,28.504l0,-41.917c0,-195.059 0.839,-390.117 -0.558,-585.179c0,-32.417 9.223,-42.756 41.64,-41.64c91.94,2.515 184.161,2.237 276.381,2.796l0,1254.192l-0.281,0.558l-0.004,0.004Z" style="fill:#2745b2;fill-rule:nonzero;"/></g><g><path d="M14214.202,1963.423c-91.104,-17.325 -179.131,-43.037 -257.1,-95.294c-183.321,-123.24 -274.983,-297.9 -284.765,-516.433c-8.664,-194.5 49.183,-365.806 187.792,-505.813c303.207,-305.725 902.638,-225.242 1047.674,271.071c70.702,242.008 28.785,467.808 -145.317,658.673c-92.779,101.721 -211.548,158.452 -346.244,182.485c-7.267,1.398 -14.533,3.354 -21.796,5.31l-180.248,0l0.004,-0Zm403.811,-634.921c1.117,-94.177 -24.873,-168.792 -74.334,-235.3c-100.046,-134.696 -296.779,-160.686 -424.771,-53.096c-104.794,88.027 -137.773,204.562 -121.842,337.579c22.917,190.869 207.913,317.181 390.398,266.319c139.729,-38.844 230.829,-168.233 230.271,-315.784l0.281,0.281l-0.004,0Z" style="fill:#2745b2;fill-rule:nonzero;"/></g><g><path d="M10021.825,1312.575l0,295.663c0,99.765 -0.558,199.252 0.281,299.017c0.281,27.946 -6.708,40.523 -37.727,39.683c-82.44,-1.956 -165.156,-1.398 -247.596,-0.281c-24.314,0.281 -34.092,-6.708 -34.092,-32.698c0.558,-397.665 0.558,-795.329 0,-1192.99c0,-24.873 7.544,-34.092 33.256,-33.815c71.819,1.398 143.642,1.675 215.46,0c27.106,-0.558 42.756,9.5 57.567,31.3c137.492,203.442 275.823,406.048 413.873,609.213c4.752,6.986 9.781,13.694 20.402,28.223l0,-41.917c0,-195.059 0.839,-390.117 -0.558,-585.179c0,-32.698 9.5,-42.479 41.917,-41.64c81.323,1.956 162.923,1.398 244.242,0.281c24.592,-0.281 34.092,7.825 34.092,33.256c-0.558,397.665 -0.558,795.329 0,1192.99c0,25.431 -9.223,33.533 -34.092,33.256c-72.939,-1.117 -145.875,-1.398 -218.533,0c-24.592,0.558 -39.402,-8.664 -52.819,-28.223c-132.462,-189.748 -265.761,-379.219 -398.781,-568.69c-9.781,-13.694 -19.562,-27.387 -29.344,-41.081l-6.986,3.631l-0.562,0Z" style="fill:#2745b2;fill-rule:nonzero;"/></g><g><path d="M11552.402,1939.952l-582.106,0c-39.125,0 -40.242,-1.398 -26.829,-37.169c150.904,-397.665 302.09,-795.329 452.436,-1193.271c8.106,-21.796 20.121,-29.063 42.756,-28.785c74.896,1.117 150.069,1.956 224.961,-0.281c29.344,-0.839 41.081,11.456 50.581,36.888c115.415,304.604 231.669,608.932 347.642,913.259c34.654,91.104 69.585,182.204 103.958,273.308c12.854,34.373 11.737,35.771 -25.15,35.771l-588.53,0l0.281,0.281Zm0.836,-823.275c-62.038,181.365 -120.725,353.229 -179.967,525.094c-8.383,24.314 5.869,23.752 22.635,23.752c103.677,0 207.635,-1.117 311.313,0.558c31.577,0.558 32.417,-9.223 23.475,-34.931c-44.431,-127.152 -87.469,-254.863 -131.065,-382.296c-14.252,-41.358 -28.785,-82.44 -46.388,-131.904l0,-0.281l-0.004,0.008Z" style="fill:#2745b2;fill-rule:nonzero;"/></g><g><path d="M12705.147,1462.362l0,430.921c0,35.406 -17.131,53.096 -51.421,53.096l-221.888,0c-34.456,0 -51.698,-16.85 -51.698,-50.581l0,-868.265c0,-30.544 -15.175,-45.913 -45.552,-46.11c-64.275,0 -128.55,-0.558 -192.825,0.281c-23.194,0.281 -32.698,-7.267 -32.417,-31.3c0.839,-77.129 0.839,-154.258 0,-231.669c0,-23.752 8.664,-31.858 32.136,-31.577c269.115,0.558 538.229,0.558 807.344,0c24.592,0 31.577,10.621 31.577,32.698c-0.558,76.012 -0.558,152.302 0,228.315c0,24.592 -8.664,34.092 -34.092,33.533c-66.509,-1.398 -133.021,1.117 -199.252,-1.117c-31.858,-1.117 -42.479,7.544 -42.198,40.8c1.675,146.715 0.839,293.706 0.839,440.698l-0.558,0.281l0.004,-0.004Z" style="fill:#2745b2;fill-rule:nonzero;"/></g><g><path d="M13477.002,1317.327c0,196.175 -0.839,392.354 0.839,588.252c0,32.698 -9.781,42.479 -41.917,41.64c-79.367,-1.956 -158.452,-0.558 -237.815,-0.558c-44.431,0 -44.994,0 -44.994,-44.713l0,-1092.948c0,-29.902 0.839,-60.081 0,-89.983c-0.558,-23.475 9.223,-31.858 32.698,-31.577c84.673,0.839 169.35,1.398 254.023,0c29.902,-0.558 38.285,10.059 38.004,38.844c-1.117,197.296 -0.558,394.311 -0.558,591.606l-0.281,-0.558l-0,-0.004Z" style="fill:#2745b2;fill-rule:nonzero;"/></g></g><g><g id="s"><g id="c"><g id="t"><path d="M14302.131,733.128l-25.952,79.868l39.934,12.976l-13.982,-92.844Z" style="fill:#b2a127;fill-rule:nonzero;"/></g><g id="t1" serif:id="t"><path d="M14302.131,733.128l25.952,79.868l-39.934,12.976l13.982,-92.844Z" style="fill:#b2a127;fill-rule:nonzero;"/></g></g><g id="a"><g id="c1" serif:id="c"><g id="t2" serif:id="t"><path d="M14381.999,791.154l-83.978,0l0,41.989l83.978,-41.989Z" style="fill:#b2a127;fill-rule:nonzero;"/></g><g id="t3" serif:id="t"><path d="M14381.999,791.154l-67.941,49.362l-24.679,-33.97l92.62,-15.392Z" style="fill:#b2a127;fill-rule:nonzero;"/></g></g><g id="c2" serif:id="c"><g id="t4" serif:id="t"><path d="M14351.489,885.042l-25.952,-79.868l-39.934,12.976l65.886,66.892Z" style="fill:#b2a127;fill-rule:nonzero;"/></g><g id="t5" serif:id="t"><path d="M14351.489,885.042l-67.941,-49.362l24.679,-33.97l43.258,83.332l0.004,0Z" style="fill:#b2a127;fill-rule:nonzero;"/></g></g></g><g id="a1" serif:id="a"><g id="c3" serif:id="c"><g id="t6" serif:id="t"><path d="M14222.263,791.154l83.978,0l0,41.989l-83.978,-41.989Z" style="fill:#b2a127;fill-rule:nonzero;"/></g><g id="t7" serif:id="t"><path d="M14222.263,791.154l67.941,49.362l24.679,-33.97l-92.62,-15.392Z" style="fill:#b2a127;fill-rule:nonzero;"/></g></g><g id="c4" serif:id="c"><g id="t8" serif:id="t"><path d="M14252.769,885.042l25.952,-79.868l39.934,12.976l-65.886,66.892Z" style="fill:#b2a127;fill-rule:nonzero;"/></g><g id="t9" serif:id="t"><path d="M14252.769,885.042l67.941,-49.362l-24.679,-33.97l-43.258,83.332l-0.004,0Z" style="fill:#b2a127;fill-rule:nonzero;"/></g></g></g></g><g id="s1" serif:id="s"><g id="c5" serif:id="c"><g id="t10" serif:id="t"><path d="M14302.131,1740.86l-25.952,79.868l39.934,12.976l-13.982,-92.844Z" style="fill:#b2a127;fill-rule:nonzero;"/></g><g id="t11" serif:id="t"><path d="M14302.131,1740.86l25.952,79.868l-39.934,12.976l13.982,-92.844Z" style="fill:#b2a127;fill-rule:nonzero;"/></g></g><g id="a2" serif:id="a"><g id="c6" serif:id="c"><g id="t12" serif:id="t"><path d="M14381.999,1798.886l-83.978,0l0,41.989l83.978,-41.989Z" style="fill:#b2a127;fill-rule:nonzero;"/></g><g id="t13" serif:id="t"><path d="M14381.999,1798.886l-67.941,49.362l-24.679,-33.97l92.62,-15.392Z" style="fill:#b2a127;fill-rule:nonzero;"/></g></g><g id="c7" serif:id="c"><g id="t14" serif:id="t"><path d="M14351.489,1892.778l-25.952,-79.868l-39.934,12.976l65.886,66.892Z" style="fill:#b2a127;fill-rule:nonzero;"/></g><g id="t15" serif:id="t"><path d="M14351.489,1892.778l-67.941,-49.362l24.679,-33.97l43.258,83.332l0.004,0Z" style="fill:#b2a127;fill-rule:nonzero;"/></g></g></g><g id="a3" serif:id="a"><g id="c8" serif:id="c"><g id="t16" serif:id="t"><path d="M14222.263,1798.886l83.978,0l0,41.989l-83.978,-41.989Z" style="fill:#b2a127;fill-rule:nonzero;"/></g><g id="t17" serif:id="t"><path d="M14222.263,1798.886l67.941,49.362l24.679,-33.97l-92.62,-15.392Z" style="fill:#b2a127;fill-rule:nonzero;"/></g></g><g id="c9" serif:id="c"><g id="t18" serif:id="t"><path d="M14252.769,1892.778l25.952,-79.868l39.934,12.976l-65.886,66.892Z" style="fill:#b2a127;fill-rule:nonzero;"/></g><g id="t19" serif:id="t"><path d="M14252.769,1892.778l67.941,-49.362l-24.679,-33.97l-43.258,83.332l-0.004,0Z" style="fill:#b2a127;fill-rule:nonzero;"/></g></g></g></g><g id="l"><g id="s2" serif:id="s"><g id="c10" serif:id="c"><g id="t20" serif:id="t"><path d="M13798.263,1236.992l-25.952,79.868l39.934,12.976l-13.982,-92.844Z" style="fill:#b2a127;fill-rule:nonzero;"/></g><g id="t21" serif:id="t"><path d="M13798.263,1236.992l25.952,79.868l-39.934,12.976l13.982,-92.844Z" style="fill:#b2a127;fill-rule:nonzero;"/></g></g><g id="a4" serif:id="a"><g id="c11" serif:id="c"><g id="t22" serif:id="t"><path d="M13878.131,1295.022l-83.978,0l0,41.989l83.978,-41.989Z" style="fill:#b2a127;fill-rule:nonzero;"/></g><g id="t23" serif:id="t"><path d="M13878.131,1295.022l-67.941,49.362l-24.679,-33.97l92.62,-15.392Z" style="fill:#b2a127;fill-rule:nonzero;"/></g></g><g id="c12" serif:id="c"><g id="t24" serif:id="t"><path d="M13847.625,1388.91l-25.952,-79.868l-39.934,12.976l65.886,66.892Z" style="fill:#b2a127;fill-rule:nonzero;"/></g><g id="t25" serif:id="t"><path d="M13847.625,1388.91l-67.941,-49.362l24.679,-33.97l43.258,83.332l0.004,0Z" style="fill:#b2a127;fill-rule:nonzero;"/></g></g></g><g id="a5" serif:id="a"><g id="c13" serif:id="c"><g id="t26" serif:id="t"><path d="M13718.395,1295.022l83.978,0l0,41.989l-83.978,-41.989Z" style="fill:#b2a127;fill-rule:nonzero;"/></g><g id="t27" serif:id="t"><path d="M13718.395,1295.022l67.941,49.362l24.679,-33.97l-92.62,-15.392Z" style="fill:#b2a127;fill-rule:nonzero;"/></g></g><g id="c14" serif:id="c"><g id="t28" serif:id="t"><path d="M13748.901,1388.91l25.952,-79.868l39.934,12.976l-65.886,66.892Z" style="fill:#b2a127;fill-rule:nonzero;"/></g><g id="t29" serif:id="t"><path d="M13748.901,1388.91l67.941,-49.362l-24.679,-33.97l-43.258,83.332l-0.004,0Z" style="fill:#b2a127;fill-rule:nonzero;"/></g></g></g></g><g id="s3" serif:id="s"><g id="c15" serif:id="c"><g id="t30" serif:id="t"><path d="M14000.835,952.55l67.941,-49.362l-24.679,-33.97l-43.258,83.332l-0.004,0Z" style="fill:#b2a127;fill-rule:nonzero;"/></g><g id="t31" serif:id="t"><path d="M14000.835,952.55l25.952,-79.868l39.934,12.976l-65.886,66.892Z" style="fill:#b2a127;fill-rule:nonzero;"/></g></g><g id="a6" serif:id="a"><g id="c16" serif:id="c"><g id="t32" serif:id="t"><path d="M13970.329,858.658l67.941,49.362l24.679,-33.97l-92.62,-15.392Z" style="fill:#b2a127;fill-rule:nonzero;"/></g><g id="t33" serif:id="t"><path d="M13970.329,858.658l83.978,0l0,41.989l-83.978,-41.989Z" style="fill:#b2a127;fill-rule:nonzero;"/></g></g><g id="c17" serif:id="c"><g id="t34" serif:id="t"><path d="M14050.197,800.631l-25.952,79.868l39.934,12.976l-13.982,-92.844Z" style="fill:#b2a127;fill-rule:nonzero;"/></g><g id="t35" serif:id="t"><path d="M14050.197,800.631l25.952,79.868l-39.934,12.976l13.982,-92.844Z" style="fill:#b2a127;fill-rule:nonzero;"/></g></g></g><g id="a7" serif:id="a"><g id="c18" serif:id="c"><g id="t36" serif:id="t"><path d="M14099.559,952.55l-67.941,-49.362l24.679,-33.97l43.258,83.332l0.004,0Z" style="fill:#b2a127;fill-rule:nonzero;"/></g><g id="t37" serif:id="t"><path d="M14099.559,952.55l-25.952,-79.868l-39.934,12.976l65.886,66.892Z" style="fill:#b2a127;fill-rule:nonzero;"/></g></g><g id="c19" serif:id="c"><g id="t38" serif:id="t"><path d="M14130.065,858.658l-67.941,49.362l-24.679,-33.97l92.62,-15.392Z" style="fill:#b2a127;fill-rule:nonzero;"/></g><g id="t39" serif:id="t"><path d="M14130.065,858.658l-83.978,0l0,41.989l83.978,-41.989Z" style="fill:#b2a127;fill-rule:nonzero;"/></g></g></g></g><g id="s4" serif:id="s"><g id="c20" serif:id="c"><g id="t40" serif:id="t"><path d="M13915.128,1136.976l-25.952,-79.868l-39.934,12.976l65.886,66.892Z" style="fill:#b2a127;fill-rule:nonzero;"/></g><g id="t41" serif:id="t"><path d="M13915.128,1136.976l-67.941,-49.362l24.679,-33.97l43.258,83.332l0.004,0Z" style="fill:#b2a127;fill-rule:nonzero;"/></g></g><g id="a8" serif:id="a"><g id="c21" serif:id="c"><g id="t42" serif:id="t"><path d="M13816.408,1136.976l67.941,-49.362l-24.679,-33.97l-43.258,83.332l-0.004,0Z" style="fill:#b2a127;fill-rule:nonzero;"/></g><g id="t43" serif:id="t"><path d="M13816.408,1136.976l25.952,-79.868l39.934,12.976l-65.886,66.892Z" style="fill:#b2a127;fill-rule:nonzero;"/></g></g><g id="c22" serif:id="c"><g id="t44" serif:id="t"><path d="M13785.899,1043.088l67.941,49.362l24.679,-33.97l-92.62,-15.392Z" style="fill:#b2a127;fill-rule:nonzero;"/></g><g id="t45" serif:id="t"><path d="M13785.899,1043.088l83.978,0l0,41.989l-83.978,-41.989Z" style="fill:#b2a127;fill-rule:nonzero;"/></g></g></g><g id="a9" serif:id="a"><g id="c23" serif:id="c"><g id="t46" serif:id="t"><path d="M13945.634,1043.088l-67.941,49.362l-24.679,-33.97l92.62,-15.392Z" style="fill:#b2a127;fill-rule:nonzero;"/></g><g id="t47" serif:id="t"><path d="M13945.634,1043.088l-83.978,0l0,41.989l83.978,-41.989Z" style="fill:#b2a127;fill-rule:nonzero;"/></g></g><g id="c24" serif:id="c"><g id="t48" serif:id="t"><path d="M13865.766,985.058l25.952,79.868l-39.934,12.976l13.982,-92.844Z" style="fill:#b2a127;fill-rule:nonzero;"/></g><g id="t49" serif:id="t"><path d="M13865.766,985.058l-25.952,79.868l39.934,12.976l-13.982,-92.844Z" style="fill:#b2a127;fill-rule:nonzero;"/></g></g></g></g><g id="s5" serif:id="s"><g id="c25" serif:id="c"><g id="t50" serif:id="t"><path d="M13945.634,1546.952l-83.978,0l0,41.989l83.978,-41.989Z" style="fill:#b2a127;fill-rule:nonzero;"/></g><g id="t51" serif:id="t"><path d="M13945.634,1546.952l-67.941,49.362l-24.679,-33.97l92.62,-15.392Z" style="fill:#b2a127;fill-rule:nonzero;"/></g></g><g id="a10" serif:id="a"><g id="c26" serif:id="c"><g id="t52" serif:id="t"><path d="M13915.128,1640.844l-25.952,-79.868l-39.934,12.976l65.886,66.892Z" style="fill:#b2a127;fill-rule:nonzero;"/></g><g id="t53" serif:id="t"><path d="M13915.128,1640.844l-67.941,-49.362l24.679,-33.97l43.258,83.332l0.004,0Z" style="fill:#b2a127;fill-rule:nonzero;"/></g></g><g id="c27" serif:id="c"><g id="t54" serif:id="t"><path d="M13816.408,1640.844l67.941,-49.362l-24.679,-33.97l-43.258,83.332l-0.004,0Z" style="fill:#b2a127;fill-rule:nonzero;"/></g><g id="t55" serif:id="t"><path d="M13816.408,1640.844l25.952,-79.868l39.934,12.976l-65.886,66.892Z" style="fill:#b2a127;fill-rule:nonzero;"/></g></g></g><g id="a11" serif:id="a"><g id="c28" serif:id="c"><g id="t56" serif:id="t"><path d="M13865.766,1488.926l25.952,79.868l-39.934,12.976l13.982,-92.844Z" style="fill:#b2a127;fill-rule:nonzero;"/></g><g id="t57" serif:id="t"><path d="M13865.766,1488.926l-25.952,79.868l39.934,12.976l-13.982,-92.844Z" style="fill:#b2a127;fill-rule:nonzero;"/></g></g><g id="c29" serif:id="c"><g id="t58" serif:id="t"><path d="M13785.899,1546.952l83.978,0l0,41.989l-83.978,-41.989Z" style="fill:#b2a127;fill-rule:nonzero;"/></g><g id="t59" serif:id="t"><path d="M13785.899,1546.952l67.941,49.362l24.679,-33.97l-92.62,-15.392Z" style="fill:#b2a127;fill-rule:nonzero;"/></g></g></g></g><g id="s6" serif:id="s"><g id="c30" serif:id="c"><g id="t60" serif:id="t"><path d="M14130.065,1731.382l-83.978,0l0,41.989l83.978,-41.989Z" style="fill:#b2a127;fill-rule:nonzero;"/></g><g id="t61" serif:id="t"><path d="M14130.065,1731.382l-67.941,49.362l-24.679,-33.97l92.62,-15.392Z" style="fill:#b2a127;fill-rule:nonzero;"/></g></g><g id="a12" serif:id="a"><g id="c31" serif:id="c"><g id="t62" serif:id="t"><path d="M14099.559,1825.271l-25.952,-79.868l-39.934,12.976l65.886,66.892Z" style="fill:#b2a127;fill-rule:nonzero;"/></g><g id="t63" serif:id="t"><path d="M14099.559,1825.271l-67.941,-49.362l24.679,-33.97l43.258,83.332l0.004,0Z" style="fill:#b2a127;fill-rule:nonzero;"/></g></g><g id="c32" serif:id="c"><g id="t64" serif:id="t"><path d="M14000.835,1825.271l67.941,-49.362l-24.679,-33.97l-43.258,83.332l-0.004,0Z" style="fill:#b2a127;fill-rule:nonzero;"/></g><g id="t65" serif:id="t"><path d="M14000.835,1825.271l25.952,-79.868l39.934,12.976l-65.886,66.892Z" style="fill:#b2a127;fill-rule:nonzero;"/></g></g></g><g id="a13" serif:id="a"><g id="c33" serif:id="c"><g id="t66" serif:id="t"><path d="M14050.197,1673.356l25.952,79.868l-39.934,12.976l13.982,-92.844Z" style="fill:#b2a127;fill-rule:nonzero;"/></g><g id="t67" serif:id="t"><path d="M14050.197,1673.356l-25.952,79.868l39.934,12.976l-13.982,-92.844Z" style="fill:#b2a127;fill-rule:nonzero;"/></g></g><g id="c34" serif:id="c"><g id="t68" serif:id="t"><path d="M13970.329,1731.382l83.978,0l0,41.989l-83.978,-41.989Z" style="fill:#b2a127;fill-rule:nonzero;"/></g><g id="t69" serif:id="t"><path d="M13970.329,1731.382l67.941,49.362l24.679,-33.97l-92.62,-15.392Z" style="fill:#b2a127;fill-rule:nonzero;"/></g></g></g></g></g><g id="l1" serif:id="l"><g id="s7" serif:id="s"><g id="c35" serif:id="c"><g id="t70" serif:id="t"><path d="M14805.999,1236.992l25.952,79.868l-39.934,12.976l13.982,-92.844Z" style="fill:#b2a127;fill-rule:nonzero;"/></g><g id="t71" serif:id="t"><path d="M14805.999,1236.992l-25.952,79.868l39.934,12.976l-13.982,-92.844Z" style="fill:#b2a127;fill-rule:nonzero;"/></g></g><g id="a14" serif:id="a"><g id="c36" serif:id="c"><g id="t72" serif:id="t"><path d="M14726.131,1295.022l83.978,0l0,41.989l-83.978,-41.989Z" style="fill:#b2a127;fill-rule:nonzero;"/></g><g id="t73" serif:id="t"><path d="M14726.131,1295.022l67.941,49.362l24.679,-33.97l-92.62,-15.392Z" style="fill:#b2a127;fill-rule:nonzero;"/></g></g><g id="c37" serif:id="c"><g id="t74" serif:id="t"><path d="M14756.637,1388.91l25.952,-79.868l39.934,12.976l-65.886,66.892Z" style="fill:#b2a127;fill-rule:nonzero;"/></g><g id="t75" serif:id="t"><path d="M14756.637,1388.91l67.941,-49.362l-24.679,-33.97l-43.258,83.332l-0.004,0Z" style="fill:#b2a127;fill-rule:nonzero;"/></g></g></g><g id="a15" serif:id="a"><g id="c38" serif:id="c"><g id="t76" serif:id="t"><path d="M14885.863,1295.022l-83.978,0l0,41.989l83.978,-41.989Z" style="fill:#b2a127;fill-rule:nonzero;"/></g><g id="t77" serif:id="t"><path d="M14885.863,1295.022l-67.941,49.362l-24.679,-33.97l92.62,-15.392Z" style="fill:#b2a127;fill-rule:nonzero;"/></g></g><g id="c39" serif:id="c"><g id="t78" serif:id="t"><path d="M14855.357,1388.91l-25.952,-79.868l-39.934,12.976l65.886,66.892Z" style="fill:#b2a127;fill-rule:nonzero;"/></g><g id="t79" serif:id="t"><path d="M14855.357,1388.91l-67.941,-49.362l24.679,-33.97l43.258,83.332l0.004,0Z" style="fill:#b2a127;fill-rule:nonzero;"/></g></g></g></g><g id="s8" serif:id="s"><g id="c40" serif:id="c"><g id="t80" serif:id="t"><path d="M14603.423,952.55l-67.941,-49.362l24.679,-33.97l43.258,83.332l0.004,0Z" style="fill:#b2a127;fill-rule:nonzero;"/></g><g id="t81" serif:id="t"><path d="M14603.423,952.55l-25.952,-79.868l-39.934,12.976l65.886,66.892Z" style="fill:#b2a127;fill-rule:nonzero;"/></g></g><g id="a16" serif:id="a"><g id="c41" serif:id="c"><g id="t82" serif:id="t"><path d="M14633.933,858.658l-67.941,49.362l-24.679,-33.97l92.62,-15.392Z" style="fill:#b2a127;fill-rule:nonzero;"/></g><g id="t83" serif:id="t"><path d="M14633.933,858.658l-83.978,0l0,41.989l83.978,-41.989Z" style="fill:#b2a127;fill-rule:nonzero;"/></g></g><g id="c42" serif:id="c"><g id="t84" serif:id="t"><path d="M14554.065,800.631l25.952,79.868l-39.934,12.976l13.982,-92.844Z" style="fill:#b2a127;fill-rule:nonzero;"/></g><g id="t85" serif:id="t"><path d="M14554.065,800.631l-25.952,79.868l39.934,12.976l-13.982,-92.844Z" style="fill:#b2a127;fill-rule:nonzero;"/></g></g></g><g id="a17" serif:id="a"><g id="c43" serif:id="c"><g id="t86" serif:id="t"><path d="M14504.703,952.55l67.941,-49.362l-24.679,-33.97l-43.258,83.332l-0.004,0Z" style="fill:#b2a127;fill-rule:nonzero;"/></g><g id="t87" serif:id="t"><path d="M14504.703,952.55l25.952,-79.868l39.934,12.976l-65.886,66.892Z" style="fill:#b2a127;fill-rule:nonzero;"/></g></g><g id="c44" serif:id="c"><g id="t88" serif:id="t"><path d="M14474.197,858.658l67.941,49.362l24.679,-33.97l-92.62,-15.392Z" style="fill:#b2a127;fill-rule:nonzero;"/></g><g id="t89" serif:id="t"><path d="M14474.197,858.658l83.978,0l0,41.989l-83.978,-41.989Z" style="fill:#b2a127;fill-rule:nonzero;"/></g></g></g></g><g id="s9" serif:id="s"><g id="c45" serif:id="c"><g id="t90" serif:id="t"><path d="M14689.129,1136.976l25.952,-79.868l39.934,12.976l-65.886,66.892Z" style="fill:#b2a127;fill-rule:nonzero;"/></g><g id="t91" serif:id="t"><path d="M14689.129,1136.976l67.941,-49.362l-24.679,-33.97l-43.258,83.332l-0.004,0Z" style="fill:#b2a127;fill-rule:nonzero;"/></g></g><g id="a18" serif:id="a"><g id="c46" serif:id="c"><g id="t92" serif:id="t"><path d="M14787.853,1136.976l-67.941,-49.362l24.679,-33.97l43.258,83.332l0.004,0Z" style="fill:#b2a127;fill-rule:nonzero;"/></g><g id="t93" serif:id="t"><path d="M14787.853,1136.976l-25.952,-79.868l-39.934,12.976l65.886,66.892Z" style="fill:#b2a127;fill-rule:nonzero;"/></g></g><g id="c47" serif:id="c"><g id="t94" serif:id="t"><path d="M14818.359,1043.088l-67.941,49.362l-24.679,-33.97l92.62,-15.392Z" style="fill:#b2a127;fill-rule:nonzero;"/></g><g id="t95" serif:id="t"><path d="M14818.359,1043.088l-83.978,0l0,41.989l83.978,-41.989Z" style="fill:#b2a127;fill-rule:nonzero;"/></g></g></g><g id="a19" serif:id="a"><g id="c48" serif:id="c"><g id="t96" serif:id="t"><path d="M14658.623,1043.088l67.941,49.362l24.679,-33.97l-92.62,-15.392Z" style="fill:#b2a127;fill-rule:nonzero;"/></g><g id="t97" serif:id="t"><path d="M14658.623,1043.088l83.978,0l0,41.989l-83.978,-41.989Z" style="fill:#b2a127;fill-rule:nonzero;"/></g></g><g id="c49" serif:id="c"><g id="t98" serif:id="t"><path d="M14738.491,985.058l-25.952,79.868l39.934,12.976l-13.982,-92.844Z" style="fill:#b2a127;fill-rule:nonzero;"/></g><g id="t99" serif:id="t"><path d="M14738.491,985.058l25.952,79.868l-39.934,12.976l13.982,-92.844Z" style="fill:#b2a127;fill-rule:nonzero;"/></g></g></g></g><g id="s10" serif:id="s"><g id="c50" serif:id="c"><g id="t100" serif:id="t"><path d="M14658.623,1546.952l83.978,0l0,41.989l-83.978,-41.989Z" style="fill:#b2a127;fill-rule:nonzero;"/></g><g id="t101" serif:id="t"><path d="M14658.623,1546.952l67.941,49.362l24.679,-33.97l-92.62,-15.392Z" style="fill:#b2a127;fill-rule:nonzero;"/></g></g><g id="a20" serif:id="a"><g id="c51" serif:id="c"><g id="t102" serif:id="t"><path d="M14689.129,1640.844l25.952,-79.868l39.934,12.976l-65.886,66.892Z" style="fill:#b2a127;fill-rule:nonzero;"/></g><g id="t103" serif:id="t"><path d="M14689.129,1640.844l67.941,-49.362l-24.679,-33.97l-43.258,83.332l-0.004,0Z" style="fill:#b2a127;fill-rule:nonzero;"/></g></g><g id="c52" serif:id="c"><g id="t104" serif:id="t"><path d="M14787.853,1640.844l-67.941,-49.362l24.679,-33.97l43.258,83.332l0.004,0Z" style="fill:#b2a127;fill-rule:nonzero;"/></g><g id="t105" serif:id="t"><path d="M14787.853,1640.844l-25.952,-79.868l-39.934,12.976l65.886,66.892Z" style="fill:#b2a127;fill-rule:nonzero;"/></g></g></g><g id="a21" serif:id="a"><g id="c53" serif:id="c"><g id="t106" serif:id="t"><path d="M14738.491,1488.926l-25.952,79.868l39.934,12.976l-13.982,-92.844Z" style="fill:#b2a127;fill-rule:nonzero;"/></g><g id="t107" serif:id="t"><path d="M14738.491,1488.926l25.952,79.868l-39.934,12.976l13.982,-92.844Z" style="fill:#b2a127;fill-rule:nonzero;"/></g></g><g id="c54" serif:id="c"><g id="t108" serif:id="t"><path d="M14818.359,1546.952l-83.978,0l0,41.989l83.978,-41.989Z" style="fill:#b2a127;fill-rule:nonzero;"/></g><g id="t109" serif:id="t"><path d="M14818.359,1546.952l-67.941,49.362l-24.679,-33.97l92.62,-15.392Z" style="fill:#b2a127;fill-rule:nonzero;"/></g></g></g></g><g id="s11" serif:id="s"><g id="c55" serif:id="c"><g id="t110" serif:id="t"><path d="M14474.197,1731.382l83.978,0l0,41.989l-83.978,-41.989Z" style="fill:#b2a127;fill-rule:nonzero;"/></g><g id="t111" serif:id="t"><path d="M14474.197,1731.382l67.941,49.362l24.679,-33.97l-92.62,-15.392Z" style="fill:#b2a127;fill-rule:nonzero;"/></g></g><g id="a22" serif:id="a"><g id="c56" serif:id="c"><g id="t112" serif:id="t"><path d="M14504.703,1825.271l25.952,-79.868l39.934,12.976l-65.886,66.892Z" style="fill:#b2a127;fill-rule:nonzero;"/></g><g id="t113" serif:id="t"><path d="M14504.703,1825.271l67.941,-49.362l-24.679,-33.97l-43.258,83.332l-0.004,0Z" style="fill:#b2a127;fill-rule:nonzero;"/></g></g><g id="c57" serif:id="c"><g id="t114" serif:id="t"><path d="M14603.423,1825.271l-67.941,-49.362l24.679,-33.97l43.258,83.332l0.004,0Z" style="fill:#b2a127;fill-rule:nonzero;"/></g><g id="t115" serif:id="t"><path d="M14603.423,1825.271l-25.952,-79.868l-39.934,12.976l65.886,66.892Z" style="fill:#b2a127;fill-rule:nonzero;"/></g></g></g><g id="a23" serif:id="a"><g id="c58" serif:id="c"><g id="t116" serif:id="t"><path d="M14554.065,1673.356l-25.952,79.868l39.934,12.976l-13.982,-92.844Z" style="fill:#b2a127;fill-rule:nonzero;"/></g><g id="t117" serif:id="t"><path d="M14554.065,1673.356l25.952,79.868l-39.934,12.976l13.982,-92.844Z" style="fill:#b2a127;fill-rule:nonzero;"/></g></g><g id="c59" serif:id="c"><g id="t118" serif:id="t"><path d="M14633.933,1731.382l-83.978,0l0,41.989l83.978,-41.989Z" style="fill:#b2a127;fill-rule:nonzero;"/></g><g id="t119" serif:id="t"><path d="M14633.933,1731.382l-67.941,49.362l-24.679,-33.97l92.62,-15.392Z" style="fill:#b2a127;fill-rule:nonzero;"/></g></g></g></g></g></g></g><g><g><path d="M4790.726,1963.158c-89.615,-17.042 -176.204,-42.334 -252.898,-93.736c-180.325,-121.226 -270.489,-293.031 -280.111,-507.993c-8.523,-191.321 48.38,-359.828 184.723,-497.546c298.251,-300.728 887.886,-221.56 1030.551,266.641c69.547,238.053 28.315,460.163 -142.942,647.909c-91.263,100.058 -208.091,155.862 -340.585,179.503c-7.148,1.375 -14.296,3.299 -21.44,5.224l-177.302,0l0.004,-0Zm87.138,-304.024c91.812,0.826 169.332,-32.436 228.705,-102.259c110.778,-130.298 109.131,-332.615 -1.924,-462.909c-105.006,-123.15 -286.982,-139.642 -410.958,-36.834c-129.195,106.93 -159.984,319.145 -66.797,462.909c58.827,90.437 141.843,138.544 250.974,139.093Z" style="fill:#2745b2;fill-rule:nonzero;"/></g><g><path d="M3607.611,1963.158c-104.733,-17.042 -205.617,-47.005 -296.603,-103.358c-87.414,-54.152 -73.119,-35.459 -26.663,-111.881c33.262,-54.978 69.823,-108.032 103.358,-162.734c12.921,-21.167 24.466,-22.266 45.63,-10.171c85.214,48.656 175.927,81.365 275.436,82.74c54.978,0.826 87.964,-18.966 96.21,-54.152c7.974,-33.811 -12.371,-64.323 -61.024,-89.339c-53.603,-27.489 -110.506,-47.281 -166.306,-68.997c-85.767,-33.262 -164.382,-77.516 -223.208,-150.09c-144.317,-178.128 -117.653,-464.284 156.412,-573.142c145.965,-58.001 289.732,-35.459 431.299,19.243c47.281,18.417 92.089,41.785 134.419,69.823c17.318,11.546 21.44,22.266 9.345,41.232c-43.705,69.547 -86.865,139.642 -128.646,210.564c-13.193,22.542 -25.288,21.993 -44.808,8.246c-67.073,-46.455 -139.642,-78.342 -223.758,-74.221c-19.243,0.826 -37.66,4.398 -55.527,11.269c-47.83,18.144 -58.001,59.649 -23.364,97.308c25.565,27.762 58.827,44.258 92.911,58.827c56.077,24.19 113.252,46.455 168.779,71.471c51.955,23.364 101.71,51.679 145.139,89.339c109.68,94.835 135.245,217.435 108.854,353.229c-26.114,134.695 -111.604,218.81 -239.977,260.591c-32.985,10.72 -67.346,16.493 -101.157,24.466l-177.026,0l0.276,-0.276l0,0.011Z" style="fill:#2745b2;fill-rule:nonzero;"/></g><g><path d="M2283.203,1325.969l0,-575.339c0,-41.785 0,-41.785 42.334,-42.058c136.07,0 271.864,-1.375 407.935,0.549c95.384,1.375 186.098,22.542 265.815,78.069c96.486,67.346 137.445,165.757 147.34,278.186c9.072,105.559 -2.201,208.363 -61.85,300.728c-27.213,42.058 -60.202,78.891 -99.509,109.403c-18.417,14.296 -18.144,25.838 -8.523,45.08c64.872,130.021 128.923,260.591 192.969,391.166c15.943,32.713 14.845,34.36 -21.716,34.36c-91.812,0 -183.352,-0.549 -275.164,0.549c-23.364,0.276 -36.012,-7.421 -45.906,-28.588c-52.777,-111.328 -107.206,-222.11 -160.809,-332.888c-6.599,-13.743 -12.921,-24.739 -31.61,-25.565c-26.663,-1.375 -37.383,5.496 -37.11,34.91c1.648,105.282 0,210.837 1.099,316.119c0.276,27.213 -7.697,37.11 -35.735,36.561c-81.092,-1.648 -162.185,-1.648 -243.55,0c-27.489,0.549 -36.285,-8.246 -36.285,-36.012c1.099,-194.893 0.549,-390.067 0.549,-584.961l-0.276,-0.276l0.004,0.004Zm314.471,-194.071c0,39.035 0.826,78.069 -0.276,116.828c-0.826,22.542 8.246,29.963 29.686,28.864c23.091,-1.375 46.455,0 69.547,-0.276c89.888,-1.648 140.468,-45.63 147.889,-134.695c5.773,-70.922 -27.489,-140.192 -111.881,-148.438c-35.735,-3.572 -71.471,-1.375 -107.206,-3.299c-20.341,-1.099 -28.315,6.599 -27.762,27.489c1.099,37.936 0.276,75.869 0.276,113.805l-0.276,-0.276l0.004,0Z" style="fill:#2745b2;fill-rule:nonzero;"/></g><g><path d="M951.374,1946.393l-572.589,0c-38.485,0 -39.584,-1.375 -26.391,-36.561c148.438,-391.166 297.153,-782.331 445.042,-1173.77c7.974,-21.44 19.792,-28.864 42.058,-28.315c73.672,1.099 147.616,1.924 221.284,-0.276c28.864,-0.826 40.41,11.269 49.755,36.285c113.528,299.626 227.883,598.98 341.96,898.333c34.088,89.615 68.448,179.226 102.259,268.842c12.644,33.811 11.546,35.459 -24.739,35.459l-578.911,0l0.276,0l-0.004,0.004Zm4.674,-800.748c-2.201,-0.276 -4.398,-0.549 -6.599,-0.826c-58.001,169.882 -116.002,339.759 -174.552,509.641c-6.322,18.144 1.648,21.993 17.868,21.993c106.381,-0.276 212.488,-0.549 318.869,0c23.091,0 23.917,-9.072 17.318,-26.663c-8.246,-21.716 -14.845,-43.705 -22.542,-65.698c-50.031,-146.241 -100.335,-292.206 -150.639,-438.447l0.276,0Z" style="fill:#2745b2;fill-rule:nonzero;"/></g><g><path d="M5687.135,1327.344c0,-192.969 0.549,-385.942 -0.549,-578.911c0,-31.887 9.072,-41.232 40.959,-40.959c217.163,1.375 434.322,1.375 651.484,0c32.713,0 41.785,10.447 40.683,41.508c-2.201,64.323 -0.549,128.646 -0.549,192.969c0,42.334 0,42.607 -41.508,42.607c-113.805,0 -227.606,0.549 -341.684,-0.549c-25.288,0 -35.735,6.599 -34.91,33.535c1.648,55.804 1.375,111.881 0,167.681c-0.549,23.917 8.796,31.338 31.61,31.061c92.638,-0.826 185.549,-0.276 278.459,0c39.035,0 41.785,2.75 42.058,40.683c0.276,68.448 -0.549,137.169 0.276,205.617c0.276,25.288 -8.246,35.186 -34.91,34.91c-94.835,-1.375 -189.674,0 -284.785,-0.826c-24.739,-0.276 -32.985,7.421 -32.713,32.436c1.099,126.449 0,253.171 1.099,379.62c0,28.315 -7.421,39.035 -37.383,38.209c-79.994,-1.648 -160.26,-1.648 -240.25,0c-28.588,0.549 -38.209,-8.246 -37.936,-37.66c1.099,-194.071 0.549,-387.866 0.549,-581.938l0,0.007Z" style="fill:#2745b2;fill-rule:nonzero;"/></g><g><path d="M7133.867,1469.737c0,146.514 -0.826,293.031 0.549,439.822c0,29.137 -9.345,38.209 -37.936,37.66c-81.092,-1.648 -162.457,-1.648 -243.55,0c-31.061,0.826 -39.307,-10.447 -39.307,-40.133c0.826,-284.785 0.549,-569.294 0.549,-854.075c0,-62.675 4.125,-54.978 -56.902,-55.251c-58.001,-0.276 -116.002,-0.826 -174.003,0.276c-24.739,0.549 -36.285,-6.049 -36.012,-33.535c1.375,-74.77 1.099,-149.813 0,-224.583c0,-22.542 7.148,-31.887 31.061,-31.887c264.717,0.549 529.433,0.549 794.15,0c23.641,0 31.887,9.072 31.61,31.61c-0.549,75.869 -0.549,151.737 0,227.883c0,23.641 -10.447,30.788 -32.713,30.512c-68.448,-0.826 -137.169,0.549 -205.617,-0.826c-25.565,-0.549 -32.436,8.796 -32.163,32.985c0.826,146.514 0.549,293.031 0.549,439.822l-0.276,-0.276l0.011,-0.004Z" style="fill:#2745b2;fill-rule:nonzero;"/></g><g><path d="M2034.43,1327.072c0,192.969 -0.549,385.942 0.549,578.638c0,31.338 -7.974,42.607 -40.683,41.508c-74.77,-2.201 -149.54,-0.826 -224.583,-0.826c-36.285,0 -54.429,-18.693 -54.429,-56.077l0,-898.057c0,-82.191 0.826,-164.382 -0.276,-246.572c-0.276,-28.315 8.796,-38.758 38.209,-38.209c81.092,1.648 162.457,1.648 243.55,0c28.588,-0.549 38.209,8.246 37.936,37.66c-1.099,194.071 -0.549,387.866 -0.549,581.938l0.276,0l0,-0.004Z" style="fill:#2745b2;fill-rule:nonzero;"/></g></g></g></svg>