<?xml version="1.0" encoding="UTF-8" standalone="no"?><!DOCTYPE svg PUBLIC "-//W3C//DTD SVG 1.1//EN" "http://www.w3.org/Graphics/SVG/1.1/DTD/svg11.dtd"><svg width="100%" height="100%" viewBox="0 0 16496 2605" version="1.1" xmlns="http://www.w3.org/2000/svg" xmlns:xlink="http://www.w3.org/1999/xlink" xml:space="preserve" xmlns:serif="http://www.serif.com/" style="fill-rule:evenodd;clip-rule:evenodd;stroke-linejoin:round;stroke-miterlimit:2;"><g opacity="0.35"><g><g><path d="M7842.675,2010.922c-3.689,2.517 -7.842,1.582 -11.765,1.582l-1064.5,0c-3.57,0 -7.198,-0.234 -10.769,-0.352l0,-1.345c33.888,-56.127 67.776,-112.199 101.603,-168.326c116.352,-193.024 232.704,-386.048 349.06,-579.014c75.909,-125.895 151.822,-251.844 227.732,-377.738c106.871,-177.221 213.741,-354.443 320.497,-531.783c3.16,-5.267 6.673,-7.256 12.876,-7.198c134.262,0.176 268.527,0.119 402.727,0.119c9.658,0 9.715,0 9.715,9.715c0,172.655 0,345.256 0.119,517.911c0,5.62 -1.816,9.658 -5.62,13.695c-48.285,51.33 -96.454,102.775 -144.62,154.221c-37.282,39.799 -74.446,79.714 -111.671,119.513c-20.836,22.3 -41.73,44.538 -62.566,66.838c-1.287,1.406 -3.804,2.635 -2.693,4.915c1.053,2.107 3.628,1.172 5.559,1.172c46.706,0 93.409,0.528 140.058,-0.467c50.51,-1.053 101.017,-0.291 151.528,-0.877c8.486,-0.119 8.719,0.528 5.559,8.252c-21.656,53.261 -43.136,106.522 -64.792,159.722c-41.672,102.247 -83.518,204.436 -125.19,306.686c-25.165,61.746 -50.043,123.551 -75.151,185.297c-14.281,35.118 -28.854,70.174 -43.193,105.231c-1.64,3.923 -2.869,8.018 -4.272,12.056l-0.119,0.176l-0.119,0l0.007,0Zm-86.035,-960.732c-1.172,1.755 -1.931,2.808 -2.635,3.923c-107.281,177.923 -214.622,355.906 -321.903,533.832c-0.996,1.64 -3.218,3.513 -2.107,5.325c1.287,2.165 4.095,1.053 6.202,0.996c50.277,-0.352 100.492,0.058 150.769,-0.82c53.61,-0.935 107.281,-0.352 160.894,-0.467c9.949,0 9.949,0 9.949,-10.125l0,-524.466c0,-2.398 0.586,-4.915 -1.23,-8.252l0.058,0.058l0.003,-0.003Z" style="fill:#fb1511;fill-rule:nonzero;"/></g><g><path d="M8739.73,1050.189c-1.816,4.095 -1.111,7.256 -1.111,10.301l0,938.9c0,15.86 0.119,13.343 -13.519,13.343l-397.345,0c-7.449,0 -11.179,-3.611 -11.179,-10.826c0,-163.001 0,-325.998 -0.058,-488.941c0,-5.677 1.23,-10.125 5.267,-14.515c53.027,-56.421 105.878,-113.016 158.787,-169.556c63.444,-67.891 126.887,-135.783 190.331,-203.677c0.877,-0.996 1.755,-1.988 2.635,-3.042c-1.755,-2.635 -4.214,-1.521 -6.202,-1.521c-58.119,0.058 -116.295,-0.234 -174.413,0.586c-38.16,0.528 -76.319,0.352 -114.479,0.762c-11.531,0.119 -11.646,0 -7.374,-10.416c25.342,-62.156 50.802,-124.255 76.086,-186.411c25.694,-63.21 51.211,-126.477 76.905,-189.687c39.623,-97.508 79.365,-194.955 119.103,-292.405c11.941,-29.322 24.054,-58.528 35.761,-87.908c2.398,-6.087 5.444,-8.838 12.29,-8.486c12.523,0.528 25.165,0.528 37.692,0c6.44,-0.234 10.068,1.873 13.404,7.432c34.647,58 69.649,115.827 104.53,173.651c138.36,229.544 276.718,459.091 415.078,688.578c15.393,25.575 30.843,51.096 47.465,76.614l0,-933.456c0,-14.105 -1.463,-12.642 12.584,-12.642l398.046,0c7.063,0 10.593,3.553 10.593,10.654l0,940.248c0,7.063 -3.553,10.593 -10.654,10.593l-393.307,0c-2.635,0 -5.325,-0.644 -8.604,0.935c3.337,5.677 6.612,11.179 9.949,16.68c112.138,186.117 224.276,372.176 336.476,558.239c24.23,40.151 48.518,80.3 72.691,120.509c1.287,2.165 4.214,4.566 2.517,7.141c-1.345,1.988 -4.624,0.996 -7.022,0.996c-134.729,0 -269.404,0 -404.133,0.176c-6.263,0 -9.658,-2.165 -12.761,-7.374c-77.959,-129.638 -156.094,-259.218 -234.229,-388.741c-112.667,-186.879 -225.272,-373.7 -337.939,-560.579c-1.053,-1.697 -2.107,-3.394 -3.747,-6.03l-0.119,-0.119l0.003,-0.003Z" style="fill:#fb1511;fill-rule:nonzero;"/></g><g><path d="M8317.745,733.554c-1.931,-2.398 -1.172,-4.915 -1.172,-7.317l0,-369.72c0,-9.834 0,-9.834 10.125,-9.834l344.785,0c2.107,0.291 5.091,-1.053 6.202,1.111c1.23,2.398 -1.755,3.804 -3.218,5.325c-22.476,24.173 -44.948,48.285 -67.481,72.4c-78.779,84.28 -157.557,168.502 -236.393,252.724c-16.094,17.208 -32.249,34.356 -48.403,51.503c-1.287,1.406 -2.283,3.279 -4.448,3.747l0,0.058l0.003,0.003Z" style="fill:#fb1511;fill-rule:nonzero;"/></g><g><path d="M7842.794,2010.803c15.745,-16.622 31.605,-33.126 47.231,-49.806c29.146,-31.137 58.176,-62.333 87.264,-93.528c48.813,-52.323 97.623,-104.649 146.494,-156.971c16.388,-17.557 32.892,-34.999 49.396,-52.384c1.521,-1.64 2.693,-5.149 5.501,-3.804c2.049,0.996 1.053,4.095 1.053,6.263l0,341.391c0,7.022 -3.394,10.552 -10.183,10.593l-317.804,0c-3.042,0 -6.321,0.762 -9.014,-1.582l0.119,-0.176l-0.058,0l0,0.003Z" style="fill:#fb1511;fill-rule:nonzero;"/></g></g></g><g><g><g><g><path d="M15940.582,2154.213c-88.867,0.558 -177.733,1.117 -266.6,1.956c-19.562,0 -27.387,-14.81 -36.329,-27.946c-133.021,-189.471 -266.042,-378.942 -399.063,-568.413c-9.5,-13.694 -19.562,-27.387 -30.179,-42.479c-9.5,13.694 -5.869,25.708 -5.869,36.888c-0.281,185.558 0,370.836 0,556.394c0,45.271 0,45.271 -43.873,45.271c-80.483,0 -160.686,-0.558 -241.169,0.281c-24.314,0.281 -34.092,-6.708 -34.092,-32.698c0.558,-397.665 0.558,-795.329 0,-1192.99c0,-24.592 7.544,-34.092 32.975,-33.815c71.819,1.398 143.642,1.675 215.46,0c27.106,-0.558 42.756,9.5 57.567,31.3c137.492,203.442 275.542,406.048 413.592,608.932c4.752,6.986 9.781,13.694 20.402,28.504l0,-41.917c0,-195.059 0.839,-390.117 -0.558,-585.179c0,-32.417 9.223,-42.756 41.64,-41.64c91.94,2.515 184.161,2.237 276.381,2.796l0,1254.192l-0.281,0.558l-0.004,0.004Z" style="fill:#2745b2;fill-rule:nonzero;"/></g><g><path d="M13965.675,2173.494c-91.104,-17.325 -179.131,-43.037 -257.1,-95.294c-183.321,-123.24 -274.983,-297.9 -284.765,-516.433c-8.664,-194.5 49.183,-365.806 187.792,-505.813c303.207,-305.725 902.638,-225.242 1047.674,271.071c70.702,242.008 28.785,467.808 -145.317,658.673c-92.779,101.721 -211.548,158.452 -346.244,182.485c-7.267,1.398 -14.533,3.354 -21.796,5.31l-180.248,0l0.004,-0Zm403.811,-634.921c1.117,-94.177 -24.873,-168.792 -74.334,-235.3c-100.046,-134.696 -296.779,-160.686 -424.771,-53.096c-104.794,88.027 -137.773,204.562 -121.842,337.579c22.917,190.869 207.913,317.181 390.398,266.319c139.729,-38.844 230.829,-168.233 230.271,-315.784l0.281,0.281l-0.004,0Z" style="fill:#2745b2;fill-rule:nonzero;"/></g><g><path d="M9773.298,1522.646l0,295.663c0,99.765 -0.558,199.252 0.281,299.017c0.281,27.946 -6.708,40.523 -37.727,39.683c-82.44,-1.956 -165.156,-1.398 -247.596,-0.281c-24.314,0.281 -34.092,-6.708 -34.092,-32.698c0.558,-397.665 0.558,-795.329 0,-1192.99c0,-24.873 7.544,-34.092 33.256,-33.815c71.819,1.398 143.642,1.675 215.46,0c27.106,-0.558 42.756,9.5 57.567,31.3c137.492,203.442 275.823,406.048 413.873,609.213c4.752,6.986 9.781,13.694 20.402,28.223l0,-41.917c0,-195.059 0.839,-390.117 -0.558,-585.179c0,-32.698 9.5,-42.479 41.917,-41.64c81.323,1.956 162.923,1.398 244.242,0.281c24.592,-0.281 34.092,7.825 34.092,33.256c-0.558,397.665 -0.558,795.329 0,1192.99c0,25.431 -9.223,33.533 -34.092,33.256c-72.939,-1.117 -145.875,-1.398 -218.533,0c-24.592,0.558 -39.402,-8.664 -52.819,-28.223c-132.462,-189.748 -265.761,-379.219 -398.781,-568.69c-9.781,-13.694 -19.562,-27.387 -29.344,-41.081l-6.986,3.631l-0.562,0Z" style="fill:#2745b2;fill-rule:nonzero;"/></g><g><path d="M11303.875,2150.023l-582.106,0c-39.125,0 -40.242,-1.398 -26.829,-37.169c150.904,-397.665 302.09,-795.329 452.436,-1193.271c8.106,-21.796 20.121,-29.063 42.756,-28.785c74.896,1.117 150.069,1.956 224.961,-0.281c29.344,-0.839 41.081,11.456 50.581,36.888c115.415,304.604 231.669,608.932 347.642,913.259c34.654,91.104 69.585,182.204 103.958,273.308c12.854,34.373 11.737,35.771 -25.15,35.771l-588.53,0l0.281,0.281Zm0.836,-823.275c-62.038,181.365 -120.725,353.229 -179.967,525.094c-8.383,24.314 5.869,23.752 22.635,23.752c103.677,0 207.635,-1.117 311.313,0.558c31.577,0.558 32.417,-9.223 23.475,-34.931c-44.431,-127.152 -87.469,-254.863 -131.065,-382.296c-14.252,-41.358 -28.785,-82.44 -46.388,-131.904l0,-0.281l-0.004,0.008Z" style="fill:#2745b2;fill-rule:nonzero;"/></g><g><path d="M12456.62,1672.433l0,430.921c0,35.406 -17.131,53.096 -51.421,53.096l-221.888,0c-34.456,0 -51.698,-16.85 -51.698,-50.581l0,-868.265c0,-30.544 -15.175,-45.913 -45.552,-46.11c-64.275,0 -128.55,-0.558 -192.825,0.281c-23.194,0.281 -32.698,-7.267 -32.417,-31.3c0.839,-77.129 0.839,-154.258 0,-231.669c0,-23.752 8.664,-31.858 32.136,-31.577c269.115,0.558 538.229,0.558 807.344,0c24.592,0 31.577,10.621 31.577,32.698c-0.558,76.012 -0.558,152.302 0,228.315c0,24.592 -8.664,34.092 -34.092,33.533c-66.509,-1.398 -133.021,1.117 -199.252,-1.117c-31.858,-1.117 -42.479,7.544 -42.198,40.8c1.675,146.715 0.839,293.706 0.839,440.698l-0.558,0.281l0.004,-0.004Z" style="fill:#2745b2;fill-rule:nonzero;"/></g><g><path d="M13228.474,1527.397c0,196.175 -0.839,392.354 0.839,588.252c0,32.698 -9.781,42.479 -41.917,41.64c-79.367,-1.956 -158.452,-0.558 -237.815,-0.558c-44.431,0 -44.994,0 -44.994,-44.713l0,-1092.948c0,-29.902 0.839,-60.081 0,-89.983c-0.558,-23.475 9.223,-31.858 32.698,-31.577c84.673,0.839 169.35,1.398 254.023,0c29.902,-0.558 38.285,10.059 38.004,38.844c-1.117,197.296 -0.558,394.311 -0.558,591.606l-0.281,-0.558l-0,-0.004Z" style="fill:#2745b2;fill-rule:nonzero;"/></g></g><g><g id="s"><g id="c"><g id="t"><path d="M14053.603,943.198l-25.952,79.868l39.934,12.976l-13.982,-92.844Z" style="fill:#b2a127;fill-rule:nonzero;"/></g><g id="t1" serif:id="t"><path d="M14053.603,943.198l25.952,79.868l-39.934,12.976l13.982,-92.844Z" style="fill:#b2a127;fill-rule:nonzero;"/></g></g><g id="a"><g id="c1" serif:id="c"><g id="t2" serif:id="t"><path d="M14133.471,1001.225l-83.978,0l0,41.989l83.978,-41.989Z" style="fill:#b2a127;fill-rule:nonzero;"/></g><g id="t3" serif:id="t"><path d="M14133.471,1001.225l-67.941,49.362l-24.679,-33.97l92.62,-15.392Z" style="fill:#b2a127;fill-rule:nonzero;"/></g></g><g id="c2" serif:id="c"><g id="t4" serif:id="t"><path d="M14102.961,1095.113l-25.952,-79.868l-39.934,12.976l65.886,66.892Z" style="fill:#b2a127;fill-rule:nonzero;"/></g><g id="t5" serif:id="t"><path d="M14102.961,1095.113l-67.941,-49.362l24.679,-33.97l43.258,83.332l0.004,0Z" style="fill:#b2a127;fill-rule:nonzero;"/></g></g></g><g id="a1" serif:id="a"><g id="c3" serif:id="c"><g id="t6" serif:id="t"><path d="M13973.735,1001.225l83.978,0l0,41.989l-83.978,-41.989Z" style="fill:#b2a127;fill-rule:nonzero;"/></g><g id="t7" serif:id="t"><path d="M13973.735,1001.225l67.941,49.362l24.679,-33.97l-92.62,-15.392Z" style="fill:#b2a127;fill-rule:nonzero;"/></g></g><g id="c4" serif:id="c"><g id="t8" serif:id="t"><path d="M14004.241,1095.113l25.952,-79.868l39.934,12.976l-65.886,66.892Z" style="fill:#b2a127;fill-rule:nonzero;"/></g><g id="t9" serif:id="t"><path d="M14004.241,1095.113l67.941,-49.362l-24.679,-33.97l-43.258,83.332l-0.004,0Z" style="fill:#b2a127;fill-rule:nonzero;"/></g></g></g></g><g id="s1" serif:id="s"><g id="c5" serif:id="c"><g id="t10" serif:id="t"><path d="M14053.603,1950.93l-25.952,79.868l39.934,12.976l-13.982,-92.844Z" style="fill:#b2a127;fill-rule:nonzero;"/></g><g id="t11" serif:id="t"><path d="M14053.603,1950.93l25.952,79.868l-39.934,12.976l13.982,-92.844Z" style="fill:#b2a127;fill-rule:nonzero;"/></g></g><g id="a2" serif:id="a"><g id="c6" serif:id="c"><g id="t12" serif:id="t"><path d="M14133.471,2008.957l-83.978,0l0,41.989l83.978,-41.989Z" style="fill:#b2a127;fill-rule:nonzero;"/></g><g id="t13" serif:id="t"><path d="M14133.471,2008.957l-67.941,49.362l-24.679,-33.97l92.62,-15.392Z" style="fill:#b2a127;fill-rule:nonzero;"/></g></g><g id="c7" serif:id="c"><g id="t14" serif:id="t"><path d="M14102.961,2102.849l-25.952,-79.868l-39.934,12.976l65.886,66.892Z" style="fill:#b2a127;fill-rule:nonzero;"/></g><g id="t15" serif:id="t"><path d="M14102.961,2102.849l-67.941,-49.362l24.679,-33.97l43.258,83.332l0.004,0Z" style="fill:#b2a127;fill-rule:nonzero;"/></g></g></g><g id="a3" serif:id="a"><g id="c8" serif:id="c"><g id="t16" serif:id="t"><path d="M13973.735,2008.957l83.978,0l0,41.989l-83.978,-41.989Z" style="fill:#b2a127;fill-rule:nonzero;"/></g><g id="t17" serif:id="t"><path d="M13973.735,2008.957l67.941,49.362l24.679,-33.97l-92.62,-15.392Z" style="fill:#b2a127;fill-rule:nonzero;"/></g></g><g id="c9" serif:id="c"><g id="t18" serif:id="t"><path d="M14004.241,2102.849l25.952,-79.868l39.934,12.976l-65.886,66.892Z" style="fill:#b2a127;fill-rule:nonzero;"/></g><g id="t19" serif:id="t"><path d="M14004.241,2102.849l67.941,-49.362l-24.679,-33.97l-43.258,83.332l-0.004,0Z" style="fill:#b2a127;fill-rule:nonzero;"/></g></g></g></g><g id="l"><g id="s2" serif:id="s"><g id="c10" serif:id="c"><g id="t20" serif:id="t"><path d="M13549.735,1447.062l-25.952,79.868l39.934,12.976l-13.982,-92.844Z" style="fill:#b2a127;fill-rule:nonzero;"/></g><g id="t21" serif:id="t"><path d="M13549.735,1447.062l25.952,79.868l-39.934,12.976l13.982,-92.844Z" style="fill:#b2a127;fill-rule:nonzero;"/></g></g><g id="a4" serif:id="a"><g id="c11" serif:id="c"><g id="t22" serif:id="t"><path d="M13629.603,1505.092l-83.978,0l0,41.989l83.978,-41.989Z" style="fill:#b2a127;fill-rule:nonzero;"/></g><g id="t23" serif:id="t"><path d="M13629.603,1505.092l-67.941,49.362l-24.679,-33.97l92.62,-15.392Z" style="fill:#b2a127;fill-rule:nonzero;"/></g></g><g id="c12" serif:id="c"><g id="t24" serif:id="t"><path d="M13599.097,1598.981l-25.952,-79.868l-39.934,12.976l65.886,66.892Z" style="fill:#b2a127;fill-rule:nonzero;"/></g><g id="t25" serif:id="t"><path d="M13599.097,1598.981l-67.941,-49.362l24.679,-33.97l43.258,83.332l0.004,0Z" style="fill:#b2a127;fill-rule:nonzero;"/></g></g></g><g id="a5" serif:id="a"><g id="c13" serif:id="c"><g id="t26" serif:id="t"><path d="M13469.867,1505.092l83.978,0l0,41.989l-83.978,-41.989Z" style="fill:#b2a127;fill-rule:nonzero;"/></g><g id="t27" serif:id="t"><path d="M13469.867,1505.092l67.941,49.362l24.679,-33.97l-92.62,-15.392Z" style="fill:#b2a127;fill-rule:nonzero;"/></g></g><g id="c14" serif:id="c"><g id="t28" serif:id="t"><path d="M13500.373,1598.981l25.952,-79.868l39.934,12.976l-65.886,66.892Z" style="fill:#b2a127;fill-rule:nonzero;"/></g><g id="t29" serif:id="t"><path d="M13500.373,1598.981l67.941,-49.362l-24.679,-33.97l-43.258,83.332l-0.004,0Z" style="fill:#b2a127;fill-rule:nonzero;"/></g></g></g></g><g id="s3" serif:id="s"><g id="c15" serif:id="c"><g id="t30" serif:id="t"><path d="M13752.307,1162.62l67.941,-49.362l-24.679,-33.97l-43.258,83.332l-0.004,0Z" style="fill:#b2a127;fill-rule:nonzero;"/></g><g id="t31" serif:id="t"><path d="M13752.307,1162.62l25.952,-79.868l39.934,12.976l-65.886,66.892Z" style="fill:#b2a127;fill-rule:nonzero;"/></g></g><g id="a6" serif:id="a"><g id="c16" serif:id="c"><g id="t32" serif:id="t"><path d="M13721.801,1068.728l67.941,49.362l24.679,-33.97l-92.62,-15.392Z" style="fill:#b2a127;fill-rule:nonzero;"/></g><g id="t33" serif:id="t"><path d="M13721.801,1068.728l83.978,0l0,41.989l-83.978,-41.989Z" style="fill:#b2a127;fill-rule:nonzero;"/></g></g><g id="c17" serif:id="c"><g id="t34" serif:id="t"><path d="M13801.669,1010.702l-25.952,79.868l39.934,12.976l-13.982,-92.844Z" style="fill:#b2a127;fill-rule:nonzero;"/></g><g id="t35" serif:id="t"><path d="M13801.669,1010.702l25.952,79.868l-39.934,12.976l13.982,-92.844Z" style="fill:#b2a127;fill-rule:nonzero;"/></g></g></g><g id="a7" serif:id="a"><g id="c18" serif:id="c"><g id="t36" serif:id="t"><path d="M13851.031,1162.62l-67.941,-49.362l24.679,-33.97l43.258,83.332l0.004,0Z" style="fill:#b2a127;fill-rule:nonzero;"/></g><g id="t37" serif:id="t"><path d="M13851.031,1162.62l-25.952,-79.868l-39.934,12.976l65.886,66.892Z" style="fill:#b2a127;fill-rule:nonzero;"/></g></g><g id="c19" serif:id="c"><g id="t38" serif:id="t"><path d="M13881.537,1068.728l-67.941,49.362l-24.679,-33.97l92.62,-15.392Z" style="fill:#b2a127;fill-rule:nonzero;"/></g><g id="t39" serif:id="t"><path d="M13881.537,1068.728l-83.978,0l0,41.989l83.978,-41.989Z" style="fill:#b2a127;fill-rule:nonzero;"/></g></g></g></g><g id="s4" serif:id="s"><g id="c20" serif:id="c"><g id="t40" serif:id="t"><path d="M13666.601,1347.047l-25.952,-79.868l-39.934,12.976l65.886,66.892Z" style="fill:#b2a127;fill-rule:nonzero;"/></g><g id="t41" serif:id="t"><path d="M13666.601,1347.047l-67.941,-49.362l24.679,-33.97l43.258,83.332l0.004,0Z" style="fill:#b2a127;fill-rule:nonzero;"/></g></g><g id="a8" serif:id="a"><g id="c21" serif:id="c"><g id="t42" serif:id="t"><path d="M13567.881,1347.047l67.941,-49.362l-24.679,-33.97l-43.258,83.332l-0.004,0Z" style="fill:#b2a127;fill-rule:nonzero;"/></g><g id="t43" serif:id="t"><path d="M13567.881,1347.047l25.952,-79.868l39.934,12.976l-65.886,66.892Z" style="fill:#b2a127;fill-rule:nonzero;"/></g></g><g id="c22" serif:id="c"><g id="t44" serif:id="t"><path d="M13537.371,1253.159l67.941,49.362l24.679,-33.97l-92.62,-15.392Z" style="fill:#b2a127;fill-rule:nonzero;"/></g><g id="t45" serif:id="t"><path d="M13537.371,1253.159l83.978,0l0,41.989l-83.978,-41.989Z" style="fill:#b2a127;fill-rule:nonzero;"/></g></g></g><g id="a9" serif:id="a"><g id="c23" serif:id="c"><g id="t46" serif:id="t"><path d="M13697.107,1253.159l-67.941,49.362l-24.679,-33.97l92.62,-15.392Z" style="fill:#b2a127;fill-rule:nonzero;"/></g><g id="t47" serif:id="t"><path d="M13697.107,1253.159l-83.978,0l0,41.989l83.978,-41.989Z" style="fill:#b2a127;fill-rule:nonzero;"/></g></g><g id="c24" serif:id="c"><g id="t48" serif:id="t"><path d="M13617.239,1195.128l25.952,79.868l-39.934,12.976l13.982,-92.844Z" style="fill:#b2a127;fill-rule:nonzero;"/></g><g id="t49" serif:id="t"><path d="M13617.239,1195.128l-25.952,79.868l39.934,12.976l-13.982,-92.844Z" style="fill:#b2a127;fill-rule:nonzero;"/></g></g></g></g><g id="s5" serif:id="s"><g id="c25" serif:id="c"><g id="t50" serif:id="t"><path d="M13697.107,1757.023l-83.978,0l0,41.989l83.978,-41.989Z" style="fill:#b2a127;fill-rule:nonzero;"/></g><g id="t51" serif:id="t"><path d="M13697.107,1757.023l-67.941,49.362l-24.679,-33.97l92.62,-15.392Z" style="fill:#b2a127;fill-rule:nonzero;"/></g></g><g id="a10" serif:id="a"><g id="c26" serif:id="c"><g id="t52" serif:id="t"><path d="M13666.601,1850.915l-25.952,-79.868l-39.934,12.976l65.886,66.892Z" style="fill:#b2a127;fill-rule:nonzero;"/></g><g id="t53" serif:id="t"><path d="M13666.601,1850.915l-67.941,-49.362l24.679,-33.97l43.258,83.332l0.004,0Z" style="fill:#b2a127;fill-rule:nonzero;"/></g></g><g id="c27" serif:id="c"><g id="t54" serif:id="t"><path d="M13567.881,1850.915l67.941,-49.362l-24.679,-33.97l-43.258,83.332l-0.004,0Z" style="fill:#b2a127;fill-rule:nonzero;"/></g><g id="t55" serif:id="t"><path d="M13567.881,1850.915l25.952,-79.868l39.934,12.976l-65.886,66.892Z" style="fill:#b2a127;fill-rule:nonzero;"/></g></g></g><g id="a11" serif:id="a"><g id="c28" serif:id="c"><g id="t56" serif:id="t"><path d="M13617.239,1698.996l25.952,79.868l-39.934,12.976l13.982,-92.844Z" style="fill:#b2a127;fill-rule:nonzero;"/></g><g id="t57" serif:id="t"><path d="M13617.239,1698.996l-25.952,79.868l39.934,12.976l-13.982,-92.844Z" style="fill:#b2a127;fill-rule:nonzero;"/></g></g><g id="c29" serif:id="c"><g id="t58" serif:id="t"><path d="M13537.371,1757.023l83.978,0l0,41.989l-83.978,-41.989Z" style="fill:#b2a127;fill-rule:nonzero;"/></g><g id="t59" serif:id="t"><path d="M13537.371,1757.023l67.941,49.362l24.679,-33.97l-92.62,-15.392Z" style="fill:#b2a127;fill-rule:nonzero;"/></g></g></g></g><g id="s6" serif:id="s"><g id="c30" serif:id="c"><g id="t60" serif:id="t"><path d="M13881.537,1941.453l-83.978,0l0,41.989l83.978,-41.989Z" style="fill:#b2a127;fill-rule:nonzero;"/></g><g id="t61" serif:id="t"><path d="M13881.537,1941.453l-67.941,49.362l-24.679,-33.97l92.62,-15.392Z" style="fill:#b2a127;fill-rule:nonzero;"/></g></g><g id="a12" serif:id="a"><g id="c31" serif:id="c"><g id="t62" serif:id="t"><path d="M13851.031,2035.341l-25.952,-79.868l-39.934,12.976l65.886,66.892Z" style="fill:#b2a127;fill-rule:nonzero;"/></g><g id="t63" serif:id="t"><path d="M13851.031,2035.341l-67.941,-49.362l24.679,-33.97l43.258,83.332l0.004,0Z" style="fill:#b2a127;fill-rule:nonzero;"/></g></g><g id="c32" serif:id="c"><g id="t64" serif:id="t"><path d="M13752.307,2035.341l67.941,-49.362l-24.679,-33.97l-43.258,83.332l-0.004,0Z" style="fill:#b2a127;fill-rule:nonzero;"/></g><g id="t65" serif:id="t"><path d="M13752.307,2035.341l25.952,-79.868l39.934,12.976l-65.886,66.892Z" style="fill:#b2a127;fill-rule:nonzero;"/></g></g></g><g id="a13" serif:id="a"><g id="c33" serif:id="c"><g id="t66" serif:id="t"><path d="M13801.669,1883.426l25.952,79.868l-39.934,12.976l13.982,-92.844Z" style="fill:#b2a127;fill-rule:nonzero;"/></g><g id="t67" serif:id="t"><path d="M13801.669,1883.426l-25.952,79.868l39.934,12.976l-13.982,-92.844Z" style="fill:#b2a127;fill-rule:nonzero;"/></g></g><g id="c34" serif:id="c"><g id="t68" serif:id="t"><path d="M13721.801,1941.453l83.978,0l0,41.989l-83.978,-41.989Z" style="fill:#b2a127;fill-rule:nonzero;"/></g><g id="t69" serif:id="t"><path d="M13721.801,1941.453l67.941,49.362l24.679,-33.97l-92.62,-15.392Z" style="fill:#b2a127;fill-rule:nonzero;"/></g></g></g></g></g><g id="l1" serif:id="l"><g id="s7" serif:id="s"><g id="c35" serif:id="c"><g id="t70" serif:id="t"><path d="M14557.471,1447.062l25.952,79.868l-39.934,12.976l13.982,-92.844Z" style="fill:#b2a127;fill-rule:nonzero;"/></g><g id="t71" serif:id="t"><path d="M14557.471,1447.062l-25.952,79.868l39.934,12.976l-13.982,-92.844Z" style="fill:#b2a127;fill-rule:nonzero;"/></g></g><g id="a14" serif:id="a"><g id="c36" serif:id="c"><g id="t72" serif:id="t"><path d="M14477.603,1505.092l83.978,0l0,41.989l-83.978,-41.989Z" style="fill:#b2a127;fill-rule:nonzero;"/></g><g id="t73" serif:id="t"><path d="M14477.603,1505.092l67.941,49.362l24.679,-33.97l-92.62,-15.392Z" style="fill:#b2a127;fill-rule:nonzero;"/></g></g><g id="c37" serif:id="c"><g id="t74" serif:id="t"><path d="M14508.109,1598.981l25.952,-79.868l39.934,12.976l-65.886,66.892Z" style="fill:#b2a127;fill-rule:nonzero;"/></g><g id="t75" serif:id="t"><path d="M14508.109,1598.981l67.941,-49.362l-24.679,-33.97l-43.258,83.332l-0.004,0Z" style="fill:#b2a127;fill-rule:nonzero;"/></g></g></g><g id="a15" serif:id="a"><g id="c38" serif:id="c"><g id="t76" serif:id="t"><path d="M14637.335,1505.092l-83.978,0l0,41.989l83.978,-41.989Z" style="fill:#b2a127;fill-rule:nonzero;"/></g><g id="t77" serif:id="t"><path d="M14637.335,1505.092l-67.941,49.362l-24.679,-33.97l92.62,-15.392Z" style="fill:#b2a127;fill-rule:nonzero;"/></g></g><g id="c39" serif:id="c"><g id="t78" serif:id="t"><path d="M14606.829,1598.981l-25.952,-79.868l-39.934,12.976l65.886,66.892Z" style="fill:#b2a127;fill-rule:nonzero;"/></g><g id="t79" serif:id="t"><path d="M14606.829,1598.981l-67.941,-49.362l24.679,-33.97l43.258,83.332l0.004,0Z" style="fill:#b2a127;fill-rule:nonzero;"/></g></g></g></g><g id="s8" serif:id="s"><g id="c40" serif:id="c"><g id="t80" serif:id="t"><path d="M14354.895,1162.62l-67.941,-49.362l24.679,-33.97l43.258,83.332l0.004,0Z" style="fill:#b2a127;fill-rule:nonzero;"/></g><g id="t81" serif:id="t"><path d="M14354.895,1162.62l-25.952,-79.868l-39.934,12.976l65.886,66.892Z" style="fill:#b2a127;fill-rule:nonzero;"/></g></g><g id="a16" serif:id="a"><g id="c41" serif:id="c"><g id="t82" serif:id="t"><path d="M14385.405,1068.728l-67.941,49.362l-24.679,-33.97l92.62,-15.392Z" style="fill:#b2a127;fill-rule:nonzero;"/></g><g id="t83" serif:id="t"><path d="M14385.405,1068.728l-83.978,0l0,41.989l83.978,-41.989Z" style="fill:#b2a127;fill-rule:nonzero;"/></g></g><g id="c42" serif:id="c"><g id="t84" serif:id="t"><path d="M14305.537,1010.702l25.952,79.868l-39.934,12.976l13.982,-92.844Z" style="fill:#b2a127;fill-rule:nonzero;"/></g><g id="t85" serif:id="t"><path d="M14305.537,1010.702l-25.952,79.868l39.934,12.976l-13.982,-92.844Z" style="fill:#b2a127;fill-rule:nonzero;"/></g></g></g><g id="a17" serif:id="a"><g id="c43" serif:id="c"><g id="t86" serif:id="t"><path d="M14256.175,1162.62l67.941,-49.362l-24.679,-33.97l-43.258,83.332l-0.004,0Z" style="fill:#b2a127;fill-rule:nonzero;"/></g><g id="t87" serif:id="t"><path d="M14256.175,1162.62l25.952,-79.868l39.934,12.976l-65.886,66.892Z" style="fill:#b2a127;fill-rule:nonzero;"/></g></g><g id="c44" serif:id="c"><g id="t88" serif:id="t"><path d="M14225.669,1068.728l67.941,49.362l24.679,-33.97l-92.62,-15.392Z" style="fill:#b2a127;fill-rule:nonzero;"/></g><g id="t89" serif:id="t"><path d="M14225.669,1068.728l83.978,0l0,41.989l-83.978,-41.989Z" style="fill:#b2a127;fill-rule:nonzero;"/></g></g></g></g><g id="s9" serif:id="s"><g id="c45" serif:id="c"><g id="t90" serif:id="t"><path d="M14440.602,1347.047l25.952,-79.868l39.934,12.976l-65.886,66.892Z" style="fill:#b2a127;fill-rule:nonzero;"/></g><g id="t91" serif:id="t"><path d="M14440.602,1347.047l67.941,-49.362l-24.679,-33.97l-43.258,83.332l-0.004,0Z" style="fill:#b2a127;fill-rule:nonzero;"/></g></g><g id="a18" serif:id="a"><g id="c46" serif:id="c"><g id="t92" serif:id="t"><path d="M14539.326,1347.047l-67.941,-49.362l24.679,-33.97l43.258,83.332l0.004,0Z" style="fill:#b2a127;fill-rule:nonzero;"/></g><g id="t93" serif:id="t"><path d="M14539.326,1347.047l-25.952,-79.868l-39.934,12.976l65.886,66.892Z" style="fill:#b2a127;fill-rule:nonzero;"/></g></g><g id="c47" serif:id="c"><g id="t94" serif:id="t"><path d="M14569.832,1253.159l-67.941,49.362l-24.679,-33.97l92.62,-15.392Z" style="fill:#b2a127;fill-rule:nonzero;"/></g><g id="t95" serif:id="t"><path d="M14569.832,1253.159l-83.978,0l0,41.989l83.978,-41.989Z" style="fill:#b2a127;fill-rule:nonzero;"/></g></g></g><g id="a19" serif:id="a"><g id="c48" serif:id="c"><g id="t96" serif:id="t"><path d="M14410.096,1253.159l67.941,49.362l24.679,-33.97l-92.62,-15.392Z" style="fill:#b2a127;fill-rule:nonzero;"/></g><g id="t97" serif:id="t"><path d="M14410.096,1253.159l83.978,0l0,41.989l-83.978,-41.989Z" style="fill:#b2a127;fill-rule:nonzero;"/></g></g><g id="c49" serif:id="c"><g id="t98" serif:id="t"><path d="M14489.964,1195.128l-25.952,79.868l39.934,12.976l-13.982,-92.844Z" style="fill:#b2a127;fill-rule:nonzero;"/></g><g id="t99" serif:id="t"><path d="M14489.964,1195.128l25.952,79.868l-39.934,12.976l13.982,-92.844Z" style="fill:#b2a127;fill-rule:nonzero;"/></g></g></g></g><g id="s10" serif:id="s"><g id="c50" serif:id="c"><g id="t100" serif:id="t"><path d="M14410.096,1757.023l83.978,0l0,41.989l-83.978,-41.989Z" style="fill:#b2a127;fill-rule:nonzero;"/></g><g id="t101" serif:id="t"><path d="M14410.096,1757.023l67.941,49.362l24.679,-33.97l-92.62,-15.392Z" style="fill:#b2a127;fill-rule:nonzero;"/></g></g><g id="a20" serif:id="a"><g id="c51" serif:id="c"><g id="t102" serif:id="t"><path d="M14440.602,1850.915l25.952,-79.868l39.934,12.976l-65.886,66.892Z" style="fill:#b2a127;fill-rule:nonzero;"/></g><g id="t103" serif:id="t"><path d="M14440.602,1850.915l67.941,-49.362l-24.679,-33.97l-43.258,83.332l-0.004,0Z" style="fill:#b2a127;fill-rule:nonzero;"/></g></g><g id="c52" serif:id="c"><g id="t104" serif:id="t"><path d="M14539.326,1850.915l-67.941,-49.362l24.679,-33.97l43.258,83.332l0.004,0Z" style="fill:#b2a127;fill-rule:nonzero;"/></g><g id="t105" serif:id="t"><path d="M14539.326,1850.915l-25.952,-79.868l-39.934,12.976l65.886,66.892Z" style="fill:#b2a127;fill-rule:nonzero;"/></g></g></g><g id="a21" serif:id="a"><g id="c53" serif:id="c"><g id="t106" serif:id="t"><path d="M14489.964,1698.996l-25.952,79.868l39.934,12.976l-13.982,-92.844Z" style="fill:#b2a127;fill-rule:nonzero;"/></g><g id="t107" serif:id="t"><path d="M14489.964,1698.996l25.952,79.868l-39.934,12.976l13.982,-92.844Z" style="fill:#b2a127;fill-rule:nonzero;"/></g></g><g id="c54" serif:id="c"><g id="t108" serif:id="t"><path d="M14569.832,1757.023l-83.978,0l0,41.989l83.978,-41.989Z" style="fill:#b2a127;fill-rule:nonzero;"/></g><g id="t109" serif:id="t"><path d="M14569.832,1757.023l-67.941,49.362l-24.679,-33.97l92.62,-15.392Z" style="fill:#b2a127;fill-rule:nonzero;"/></g></g></g></g><g id="s11" serif:id="s"><g id="c55" serif:id="c"><g id="t110" serif:id="t"><path d="M14225.669,1941.453l83.978,0l0,41.989l-83.978,-41.989Z" style="fill:#b2a127;fill-rule:nonzero;"/></g><g id="t111" serif:id="t"><path d="M14225.669,1941.453l67.941,49.362l24.679,-33.97l-92.62,-15.392Z" style="fill:#b2a127;fill-rule:nonzero;"/></g></g><g id="a22" serif:id="a"><g id="c56" serif:id="c"><g id="t112" serif:id="t"><path d="M14256.175,2035.341l25.952,-79.868l39.934,12.976l-65.886,66.892Z" style="fill:#b2a127;fill-rule:nonzero;"/></g><g id="t113" serif:id="t"><path d="M14256.175,2035.341l67.941,-49.362l-24.679,-33.97l-43.258,83.332l-0.004,0Z" style="fill:#b2a127;fill-rule:nonzero;"/></g></g><g id="c57" serif:id="c"><g id="t114" serif:id="t"><path d="M14354.895,2035.341l-67.941,-49.362l24.679,-33.97l43.258,83.332l0.004,0Z" style="fill:#b2a127;fill-rule:nonzero;"/></g><g id="t115" serif:id="t"><path d="M14354.895,2035.341l-25.952,-79.868l-39.934,12.976l65.886,66.892Z" style="fill:#b2a127;fill-rule:nonzero;"/></g></g></g><g id="a23" serif:id="a"><g id="c58" serif:id="c"><g id="t116" serif:id="t"><path d="M14305.537,1883.426l-25.952,79.868l39.934,12.976l-13.982,-92.844Z" style="fill:#b2a127;fill-rule:nonzero;"/></g><g id="t117" serif:id="t"><path d="M14305.537,1883.426l25.952,79.868l-39.934,12.976l13.982,-92.844Z" style="fill:#b2a127;fill-rule:nonzero;"/></g></g><g id="c59" serif:id="c"><g id="t118" serif:id="t"><path d="M14385.405,1941.453l-83.978,0l0,41.989l83.978,-41.989Z" style="fill:#b2a127;fill-rule:nonzero;"/></g><g id="t119" serif:id="t"><path d="M14385.405,1941.453l-67.941,49.362l-24.679,-33.97l92.62,-15.392Z" style="fill:#b2a127;fill-rule:nonzero;"/></g></g></g></g></g></g></g><g><g><path d="M4861.559,2298.229c-89.615,-17.042 -176.204,-42.334 -252.898,-93.736c-180.325,-121.226 -270.489,-293.031 -280.111,-507.993c-8.523,-191.321 48.38,-359.828 184.723,-497.546c298.251,-300.728 887.886,-221.56 1030.551,266.641c69.547,238.053 28.315,460.163 -142.942,647.909c-91.263,100.058 -208.091,155.862 -340.585,179.503c-7.148,1.375 -14.296,3.299 -21.44,5.224l-177.302,0l0.004,-0Zm87.138,-304.024c91.812,0.826 169.332,-32.436 228.705,-102.259c110.778,-130.298 109.131,-332.615 -1.924,-462.909c-105.006,-123.15 -286.982,-139.642 -410.958,-36.834c-129.195,106.93 -159.984,319.145 -66.797,462.909c58.827,90.437 141.843,138.544 250.974,139.093Z" style="fill:#2745b2;fill-rule:nonzero;"/></g><g><path d="M3678.445,2298.229c-104.733,-17.042 -205.617,-47.005 -296.603,-103.358c-87.414,-54.152 -73.119,-35.459 -26.663,-111.881c33.262,-54.978 69.823,-108.032 103.358,-162.734c12.921,-21.167 24.466,-22.266 45.63,-10.171c85.214,48.656 175.927,81.365 275.436,82.74c54.978,0.826 87.964,-18.966 96.21,-54.152c7.974,-33.811 -12.371,-64.323 -61.024,-89.339c-53.603,-27.489 -110.506,-47.281 -166.306,-68.997c-85.767,-33.262 -164.382,-77.516 -223.208,-150.09c-144.317,-178.128 -117.653,-464.284 156.412,-573.142c145.965,-58.001 289.732,-35.459 431.299,19.243c47.281,18.417 92.089,41.785 134.419,69.823c17.318,11.546 21.44,22.266 9.345,41.232c-43.705,69.547 -86.865,139.642 -128.646,210.564c-13.193,22.542 -25.288,21.993 -44.808,8.246c-67.073,-46.455 -139.642,-78.342 -223.758,-74.221c-19.243,0.826 -37.66,4.398 -55.527,11.269c-47.83,18.144 -58.001,59.649 -23.364,97.308c25.565,27.762 58.827,44.258 92.911,58.827c56.077,24.19 113.252,46.455 168.779,71.471c51.955,23.364 101.71,51.679 145.139,89.339c109.68,94.835 135.245,217.435 108.854,353.229c-26.114,134.695 -111.604,218.81 -239.977,260.591c-32.985,10.72 -67.346,16.493 -101.157,24.466l-177.026,0l0.276,-0.276l0,0.011Z" style="fill:#2745b2;fill-rule:nonzero;"/></g><g><path d="M2354.036,1661.04l0,-575.339c0,-41.785 0,-41.785 42.334,-42.058c136.07,0 271.864,-1.375 407.935,0.549c95.384,1.375 186.098,22.542 265.815,78.069c96.486,67.346 137.445,165.757 147.34,278.186c9.072,105.559 -2.201,208.363 -61.85,300.728c-27.213,42.058 -60.202,78.891 -99.509,109.403c-18.417,14.296 -18.144,25.838 -8.523,45.08c64.872,130.021 128.923,260.591 192.969,391.166c15.943,32.713 14.845,34.36 -21.716,34.36c-91.812,0 -183.352,-0.549 -275.164,0.549c-23.364,0.276 -36.012,-7.421 -45.906,-28.588c-52.777,-111.328 -107.206,-222.11 -160.809,-332.888c-6.599,-13.743 -12.921,-24.739 -31.61,-25.565c-26.663,-1.375 -37.383,5.496 -37.11,34.91c1.648,105.282 0,210.837 1.099,316.119c0.276,27.213 -7.697,37.11 -35.735,36.561c-81.092,-1.648 -162.185,-1.648 -243.55,0c-27.489,0.549 -36.285,-8.246 -36.285,-36.012c1.099,-194.893 0.549,-390.067 0.549,-584.961l-0.276,-0.276l0.004,0.004Zm314.471,-194.071c0,39.035 0.826,78.069 -0.276,116.828c-0.826,22.542 8.246,29.963 29.686,28.864c23.091,-1.375 46.455,0 69.547,-0.276c89.888,-1.648 140.468,-45.63 147.889,-134.695c5.773,-70.922 -27.489,-140.192 -111.881,-148.438c-35.735,-3.572 -71.471,-1.375 -107.206,-3.299c-20.341,-1.099 -28.315,6.599 -27.762,27.489c1.099,37.936 0.276,75.869 0.276,113.805l-0.276,-0.276l0.004,0Z" style="fill:#2745b2;fill-rule:nonzero;"/></g><g><path d="M1022.207,2281.463l-572.589,0c-38.485,0 -39.584,-1.375 -26.391,-36.561c148.438,-391.166 297.153,-782.331 445.042,-1173.77c7.974,-21.44 19.792,-28.864 42.058,-28.315c73.672,1.099 147.616,1.924 221.284,-0.276c28.864,-0.826 40.41,11.269 49.755,36.285c113.528,299.626 227.883,598.98 341.96,898.333c34.088,89.615 68.448,179.226 102.259,268.842c12.644,33.811 11.546,35.459 -24.739,35.459l-578.911,0l0.276,0l-0.004,0.004Zm4.674,-800.748c-2.201,-0.276 -4.398,-0.549 -6.599,-0.826c-58.001,169.882 -116.002,339.759 -174.552,509.641c-6.322,18.144 1.648,21.993 17.868,21.993c106.381,-0.276 212.488,-0.549 318.869,0c23.091,0 23.917,-9.072 17.318,-26.663c-8.246,-21.716 -14.845,-43.705 -22.542,-65.698c-50.031,-146.241 -100.335,-292.206 -150.639,-438.447l0.276,0Z" style="fill:#2745b2;fill-rule:nonzero;"/></g><g><path d="M5757.968,1662.415c0,-192.969 0.549,-385.942 -0.549,-578.911c0,-31.887 9.072,-41.232 40.959,-40.959c217.163,1.375 434.322,1.375 651.484,0c32.713,0 41.785,10.447 40.683,41.508c-2.201,64.323 -0.549,128.646 -0.549,192.969c0,42.334 0,42.607 -41.508,42.607c-113.805,0 -227.606,0.549 -341.684,-0.549c-25.288,0 -35.735,6.599 -34.91,33.535c1.648,55.804 1.375,111.881 0,167.681c-0.549,23.917 8.796,31.338 31.61,31.061c92.638,-0.826 185.549,-0.276 278.459,0c39.035,0 41.785,2.75 42.058,40.683c0.276,68.448 -0.549,137.169 0.276,205.617c0.276,25.288 -8.246,35.186 -34.91,34.91c-94.835,-1.375 -189.674,0 -284.785,-0.826c-24.739,-0.276 -32.985,7.421 -32.713,32.436c1.099,126.449 0,253.171 1.099,379.62c0,28.315 -7.421,39.035 -37.383,38.209c-79.994,-1.648 -160.26,-1.648 -240.25,0c-28.588,0.549 -38.209,-8.246 -37.936,-37.66c1.099,-194.071 0.549,-387.866 0.549,-581.938l0,0.007Z" style="fill:#2745b2;fill-rule:nonzero;"/></g><g><path d="M7204.701,1804.807c0,146.514 -0.826,293.031 0.549,439.822c0,29.137 -9.345,38.209 -37.936,37.66c-81.092,-1.648 -162.457,-1.648 -243.55,0c-31.061,0.826 -39.307,-10.447 -39.307,-40.133c0.826,-284.785 0.549,-569.294 0.549,-854.075c0,-62.675 4.125,-54.978 -56.902,-55.251c-58.001,-0.276 -116.002,-0.826 -174.003,0.276c-24.739,0.549 -36.285,-6.049 -36.012,-33.535c1.375,-74.77 1.099,-149.813 0,-224.583c0,-22.542 7.148,-31.887 31.061,-31.887c264.717,0.549 529.433,0.549 794.15,0c23.641,0 31.887,9.072 31.61,31.61c-0.549,75.869 -0.549,151.737 0,227.883c0,23.641 -10.447,30.788 -32.713,30.512c-68.448,-0.826 -137.169,0.549 -205.617,-0.826c-25.565,-0.549 -32.436,8.796 -32.163,32.985c0.826,146.514 0.549,293.031 0.549,439.822l-0.276,-0.276l0.011,-0.004Z" style="fill:#2745b2;fill-rule:nonzero;"/></g><g><path d="M2105.263,1662.142c0,192.969 -0.549,385.942 0.549,578.638c0,31.338 -7.974,42.607 -40.683,41.508c-74.77,-2.201 -149.54,-0.826 -224.583,-0.826c-36.285,0 -54.429,-18.693 -54.429,-56.077l0,-898.057c0,-82.191 0.826,-164.382 -0.276,-246.572c-0.276,-28.315 8.796,-38.758 38.209,-38.209c81.092,1.648 162.457,1.648 243.55,0c28.588,-0.549 38.209,8.246 37.936,37.66c-1.099,194.071 -0.549,387.866 -0.549,581.938l0.276,0l0,-0.004Z" style="fill:#2745b2;fill-rule:nonzero;"/></g></g></g></svg>