<?xml version="1.0" encoding="UTF-8"?>
<svg id="Objects" xmlns="http://www.w3.org/2000/svg" viewBox="0 0 554.71 403.19">
  <defs>
    <style>
      .cls-1 {
        fill: #fff;
        stroke-width: 0px;
      }
    </style>
  </defs>
  <path class="cls-1" d="m206.11,310.99c-.63.43-1.34.27-2.01.27-36.28,0-72.56,0-108.83,0-24.35,0-48.7,0-73.05,0-.61,0-1.23-.04-1.84-.06,0-.08,0-.15,0-.23,5.79-9.59,11.58-19.17,17.36-28.76,19.88-32.98,39.76-65.96,59.64-98.93,12.97-21.51,25.94-43.03,38.91-64.54,18.26-30.28,36.52-60.56,54.76-90.86.54-.9,1.14-1.24,2.2-1.23,22.94.03,45.88.02,68.81.02,1.65,0,1.66,0,1.66,1.66,0,29.5,0,58.99.02,88.49,0,.96-.31,1.65-.96,2.34-8.25,8.77-16.48,17.56-24.71,26.35-6.37,6.8-12.72,13.62-19.08,20.42-3.56,3.81-7.13,7.61-10.69,11.42-.22.24-.65.45-.46.84.18.36.62.2.95.2,7.98,0,15.96.09,23.93-.08,8.63-.18,17.26-.05,25.89-.15,1.45-.02,1.49.09.95,1.41-3.7,9.1-7.37,18.2-11.07,27.29-7.12,17.47-14.27,34.93-21.39,52.4-4.3,10.55-8.55,21.11-12.84,31.66-2.44,6-4.93,11.99-7.38,17.98-.28.67-.49,1.37-.73,2.06l-.02.03Zm-14.7-164.15c-.2.3-.33.48-.45.67-18.33,30.4-36.67,60.81-55,91.21-.17.28-.55.6-.36.91.22.37.7.18,1.06.17,8.59-.06,17.17.01,25.76-.14,9.16-.16,18.33-.06,27.49-.08,1.7,0,1.7,0,1.7-1.73,0-29.87,0-59.74,0-89.61,0-.41.1-.84-.21-1.41Z"/>
  <path class="cls-1" d="m534.34,375.89c-3.18.02-6.36.04-9.54.07-.7,0-.98-.53-1.3-1-4.76-6.78-9.52-13.56-14.28-20.34-.34-.49-.7-.98-1.08-1.52-.34.49-.21.92-.21,1.32-.01,6.64,0,13.27,0,19.91,0,1.62,0,1.62-1.57,1.62-2.88,0-5.75-.02-8.63.01-.87.01-1.22-.24-1.22-1.17.02-14.23.02-28.46,0-42.69,0-.88.27-1.22,1.18-1.21,2.57.05,5.14.06,7.71,0,.97-.02,1.53.34,2.06,1.12,4.92,7.28,9.86,14.53,14.8,21.79.17.25.35.49.73,1.02v-1.5c0-6.98.03-13.96-.02-20.94,0-1.16.33-1.53,1.49-1.49,3.29.09,6.59.08,9.89.1v44.88Z"/>
  <path class="cls-1" d="m183.56,376.58c-3.26-.62-6.41-1.54-9.2-3.41-6.56-4.41-9.84-10.66-10.19-18.48-.31-6.96,1.76-13.09,6.72-18.1,10.85-10.94,32.3-8.06,37.49,9.7,2.53,8.66,1.03,16.74-5.2,23.57-3.32,3.64-7.57,5.67-12.39,6.53-.26.05-.52.12-.78.19h-6.44Zm3.17-11.06c3.34.03,6.16-1.18,8.32-3.72,4.03-4.74,3.97-12.1-.07-16.84-3.82-4.48-10.44-5.08-14.95-1.34-4.7,3.89-5.82,11.61-2.43,16.84,2.14,3.29,5.16,5.04,9.13,5.06Z"/>
  <path class="cls-1" d="m463.67,376.58c-3.26-.62-6.41-1.54-9.2-3.41-6.56-4.41-9.84-10.66-10.19-18.48-.31-6.96,1.76-13.09,6.72-18.1,10.85-10.94,32.3-8.06,37.49,9.7,2.53,8.66,1.03,16.74-5.2,23.57-3.32,3.64-7.57,5.67-12.39,6.53-.26.05-.52.12-.78.19h-6.44Zm14.45-22.72c.04-3.37-.89-6.04-2.66-8.42-3.58-4.82-10.62-5.75-15.2-1.9-3.75,3.15-4.93,7.32-4.36,12.08.82,6.83,7.44,11.35,13.97,9.53,5-1.39,8.26-6.02,8.24-11.3Z"/>
  <path class="cls-1" d="m140.52,376.58c-3.81-.62-7.48-1.71-10.79-3.76-3.18-1.97-2.66-1.29-.97-4.07,1.21-2,2.54-3.93,3.76-5.92.47-.77.89-.81,1.66-.37,3.1,1.77,6.4,2.96,10.02,3.01,2,.03,3.2-.69,3.5-1.97.29-1.23-.45-2.34-2.22-3.25-1.95-1-4.02-1.72-6.05-2.51-3.12-1.21-5.98-2.82-8.12-5.46-5.25-6.48-4.28-16.89,5.69-20.85,5.31-2.11,10.54-1.29,15.69.7,1.72.67,3.35,1.52,4.89,2.54.63.42.78.81.34,1.5-1.59,2.53-3.16,5.08-4.68,7.66-.48.82-.92.8-1.63.3-2.44-1.69-5.08-2.85-8.14-2.7-.7.03-1.37.16-2.02.41-1.74.66-2.11,2.17-.85,3.54.93,1.01,2.14,1.61,3.38,2.14,2.04.88,4.12,1.69,6.14,2.6,1.89.85,3.7,1.88,5.28,3.25,3.99,3.45,4.92,7.91,3.96,12.85-.95,4.9-4.06,7.96-8.73,9.48-1.2.39-2.45.6-3.68.89h-6.44Z"/>
  <path class="cls-1" d="m359.38,146.84c-.31.7-.19,1.24-.19,1.76,0,53.47,0,106.94,0,160.42,0,2.71.02,2.28-2.31,2.28-22.63,0-45.26,0-67.89,0q-1.91,0-1.91-1.85c0-27.85,0-55.7-.01-83.54,0-.97.21-1.73.9-2.48,9.06-9.64,18.09-19.31,27.13-28.97,10.84-11.6,21.68-23.2,32.52-34.8.15-.17.3-.34.45-.52-.3-.45-.72-.26-1.06-.26-9.93.01-19.87-.04-29.8.1-6.52.09-13.04.06-19.56.13-1.97.02-1.99,0-1.26-1.78,4.33-10.62,8.68-21.23,13-31.85,4.39-10.8,8.75-21.61,13.14-32.41,6.77-16.66,13.56-33.31,20.35-49.96,2.04-5.01,4.11-10,6.11-15.02.41-1.04.93-1.51,2.1-1.45,2.14.09,4.3.09,6.44,0,1.1-.04,1.72.32,2.29,1.27,5.92,9.91,11.9,19.79,17.86,29.67,23.64,39.22,47.28,78.44,70.92,117.65,2.63,4.37,5.27,8.73,8.11,13.09,0-.42,0-.84,0-1.26,0-52.74,0-105.49,0-158.23,0-2.41-.25-2.16,2.15-2.16,22.67,0,45.34,0,68.01,0q1.81,0,1.81,1.82c0,53.55,0,107.1,0,160.65q0,1.81-1.82,1.81c-22.4,0-44.8,0-67.2,0-.45,0-.91-.11-1.47.16.57.97,1.13,1.91,1.7,2.85,19.16,31.8,38.32,63.59,57.49,95.38,4.14,6.86,8.29,13.72,12.42,20.59.22.37.72.78.43,1.22-.23.34-.79.17-1.2.17-23.02,0-46.03,0-69.05.03-1.07,0-1.65-.37-2.18-1.26-13.32-22.15-26.67-44.29-40.02-66.42-19.25-31.93-38.49-63.85-57.74-95.78-.18-.29-.36-.58-.64-1.03Z"/>
  <path class="cls-1" d="m287.28,92.74c-.33-.41-.2-.84-.2-1.25,0-21.06,0-42.11,0-63.17,0-1.68,0-1.68,1.73-1.68,19.56,0,39.12,0,58.68,0,.08,0,.15,0,.23,0,.36.05.87-.18,1.06.19.21.41-.3.65-.55.91-3.84,4.13-7.68,8.25-11.53,12.37-13.46,14.4-26.92,28.79-40.39,43.18-2.75,2.94-5.51,5.87-8.27,8.8-.22.24-.39.56-.76.64Z"/>
  <path class="cls-1" d="m206.13,310.97c2.69-2.84,5.4-5.66,8.07-8.51,4.98-5.32,9.94-10.65,14.91-15.98,8.34-8.94,16.68-17.88,25.03-26.82,2.8-3,5.62-5.98,8.44-8.95.26-.28.46-.88.94-.65.35.17.18.7.18,1.07,0,11.54,0,23.09,0,34.63,0,7.9,0,15.8,0,23.7q0,1.8-1.74,1.81c-18.1,0-36.2,0-54.3,0-.52,0-1.08.13-1.54-.27,0,0,.02-.03.02-.03Z"/>
  <path class="cls-1" d="m313.65,353.29c0,3.53,0,7.05,0,10.58,0,3.57-.02,7.13.01,10.7.01,1-.24,1.45-1.35,1.42-2.95-.07-5.91-.05-8.86-.01-.87.01-1.22-.24-1.22-1.17.02-14.23.02-28.46,0-42.69,0-.89.27-1.22,1.19-1.21,2.57.05,5.14.06,7.71,0,.97-.02,1.53.34,2.06,1.12,4.92,7.28,9.87,14.53,14.81,21.8.17.25.35.49.73,1.01v-1.5c0-6.98.03-13.96-.02-20.94,0-1.17.34-1.52,1.5-1.49,2.91.07,5.83.05,8.74.01.88-.01,1.22.28,1.22,1.19-.02,14.23-.02,28.46,0,42.69,0,.91-.33,1.2-1.22,1.19-2.61-.04-5.22-.05-7.82,0-.88.02-1.41-.31-1.89-1.01-4.74-6.79-9.51-13.57-14.27-20.35-.35-.49-.7-.98-1.05-1.47l-.25.13Z"/>
  <path class="cls-1" d="m92.34,353.4c0-6.98,0-13.96,0-20.93,0-1.52,0-1.52,1.54-1.53,4.95,0,9.89-.05,14.84.02,3.47.05,6.77.82,9.67,2.84,3.51,2.45,5,6.03,5.36,10.12.33,3.84-.08,7.58-2.25,10.94-.99,1.53-2.19,2.87-3.62,3.98-.67.52-.66.94-.31,1.64,2.36,4.73,4.69,9.48,7.02,14.23.58,1.19.54,1.25-.79,1.25-3.34,0-6.67-.02-10.01.02-.85.01-1.31-.27-1.67-1.04-1.92-4.05-3.9-8.08-5.85-12.11-.24-.5-.47-.9-1.15-.93-.97-.05-1.36.2-1.35,1.27.06,3.83,0,7.67.04,11.5.01.99-.28,1.35-1.3,1.33-2.95-.06-5.9-.06-8.86,0-1,.02-1.32-.3-1.32-1.31.04-7.09.02-14.19.02-21.28Zm11.44-7.06c0,1.42.03,2.84-.01,4.25-.03.82.3,1.09,1.08,1.05.84-.05,1.69,0,2.53-.01,3.27-.06,5.11-1.66,5.38-4.9.21-2.58-1-5.1-4.07-5.4-1.3-.13-2.6-.05-3.9-.12-.74-.04-1.03.24-1.01,1,.04,1.38.01,2.76.01,4.14Z"/>
  <path class="cls-1" d="m368.42,375.74c-6.94,0-13.89,0-20.83,0-1.4,0-1.44-.05-.96-1.33,5.4-14.23,10.81-28.46,16.19-42.7.29-.78.72-1.04,1.53-1.03,2.68.04,5.37.07,8.05-.01,1.05-.03,1.47.41,1.81,1.32,4.13,10.9,8.29,21.79,12.44,32.68,1.24,3.26,2.49,6.52,3.72,9.78.46,1.23.42,1.28-.9,1.28-7.02,0-14.04,0-21.06,0Zm.03-29.46c-2.22,6.49-4.32,12.64-6.44,18.79-.3.87.21.85.81.85,3.71,0,7.43-.04,11.14.02,1.13.02,1.16-.33.84-1.25-1.59-4.55-3.13-9.12-4.69-13.68-.51-1.48-1.03-2.95-1.66-4.72Z"/>
  <path class="cls-1" d="m43.89,375.97c-6.94,0-13.89,0-20.83,0-1.4,0-1.44-.05-.96-1.33,5.4-14.23,10.81-28.46,16.19-42.7.29-.78.72-1.05,1.53-1.03,2.68.04,5.37.07,8.05-.01,1.05-.03,1.47.41,1.81,1.32,4.13,10.9,8.29,21.79,12.44,32.68,1.24,3.26,2.49,6.52,3.72,9.78.46,1.23.42,1.29-.9,1.29-7.02,0-14.04,0-21.06,0Zm.17-29.13c-.08-.01-.16-.02-.24-.03-2.11,6.18-4.22,12.36-6.35,18.54-.23.66.06.8.65.8,3.87-.01,7.73-.02,11.6,0,.84,0,.87-.33.63-.97-.3-.79-.54-1.59-.82-2.39-1.82-5.32-3.65-10.63-5.48-15.95Z"/>
  <path class="cls-1" d="m216.17,353.45c0-7.02.02-14.04-.02-21.06,0-1.16.33-1.5,1.49-1.49,7.9.05,15.8.05,23.7,0,1.19,0,1.52.38,1.48,1.51-.08,2.34-.02,4.68-.02,7.02,0,1.54,0,1.55-1.51,1.55-4.14,0-8.28.02-12.43-.02-.92,0-1.3.24-1.27,1.22.06,2.03.05,4.07,0,6.1-.02.87.32,1.14,1.15,1.13,3.37-.03,6.75-.01,10.13,0,1.42,0,1.52.1,1.53,1.48.01,2.49-.02,4.99.01,7.48.01.92-.3,1.28-1.27,1.27-3.45-.05-6.9,0-10.36-.03-.9-.01-1.2.27-1.19,1.18.04,4.6,0,9.21.04,13.81,0,1.03-.27,1.42-1.36,1.39-2.91-.06-5.83-.06-8.74,0-1.04.02-1.39-.3-1.38-1.37.04-7.06.02-14.11.02-21.17Z"/>
  <path class="cls-1" d="m268.8,358.63c0,5.33-.03,10.66.02,16,0,1.06-.34,1.39-1.38,1.37-2.95-.06-5.91-.06-8.86,0-1.13.03-1.43-.38-1.43-1.46.03-10.36.02-20.71.02-31.07,0-2.28.15-2-2.07-2.01-2.11-.01-4.22-.03-6.33.01-.9.02-1.32-.22-1.31-1.22.05-2.72.04-5.45,0-8.17,0-.82.26-1.16,1.13-1.16,9.63.02,19.26.02,28.89,0,.86,0,1.16.33,1.15,1.15-.02,2.76-.02,5.52,0,8.29,0,.86-.38,1.12-1.19,1.11-2.49-.03-4.99.02-7.48-.03-.93-.02-1.18.32-1.17,1.2.03,5.33.02,10.66.02,16Z"/>
  <path class="cls-1" d="m409.67,358.65c0,5.14,0,10.28,0,15.42q0,1.9-1.84,1.9c-2.65,0-5.29,0-7.94,0q-1.85,0-1.85-1.81c0-10.36,0-20.71,0-31.07q0-1.64-1.63-1.65c-2.3,0-4.6-.02-6.9.01-.83.01-1.17-.26-1.16-1.12.03-2.76.03-5.52,0-8.29,0-.85.31-1.14,1.15-1.13,9.63.02,19.26.02,28.89,0,.88,0,1.13.38,1.13,1.17-.02,2.72-.02,5.45,0,8.17,0,.88-.31,1.22-1.22,1.2-2.38-.05-4.76.04-7.13-.04-1.14-.04-1.52.27-1.51,1.46.06,5.25.03,10.51.03,15.77Z"/>
  <path class="cls-1" d="m83.29,353.44c0,7.02-.02,14.04.02,21.05,0,1.14-.29,1.55-1.48,1.51-2.72-.08-5.44-.03-8.17-.03q-1.98,0-1.98-2.04c0-10.89,0-21.78,0-32.67,0-2.99.03-5.98-.01-8.97-.01-1.03.32-1.41,1.39-1.39,2.95.06,5.91.06,8.86,0,1.04-.02,1.39.3,1.38,1.37-.04,7.06-.02,14.11-.02,21.17Z"/>
  <path class="cls-1" d="m437.29,353.46c0,7.02-.03,14.04.03,21.05,0,1.17-.35,1.52-1.5,1.49-2.84-.07-5.67-.02-8.51-.02-1.59,0-1.61,0-1.61-1.6,0-13.04,0-26.08,0-39.11,0-1.07.03-2.15,0-3.22-.02-.84.33-1.14,1.17-1.13,3.03.03,6.06.05,9.09,0,1.07-.02,1.37.36,1.36,1.39-.04,7.06-.02,14.11-.02,21.17Z"/>
</svg>